%TF.GenerationSoftware,KiCad,Pcbnew,6.0.4-6f826c9f35~116~ubuntu20.04.1*%
%TF.CreationDate,2022-04-13T00:37:52-07:00*%
%TF.ProjectId,PIC_Timer,5049435f-5469-46d6-9572-2e6b69636164,rev?*%
%TF.SameCoordinates,Original*%
%TF.FileFunction,Legend,Bot*%
%TF.FilePolarity,Positive*%
%FSLAX46Y46*%
G04 Gerber Fmt 4.6, Leading zero omitted, Abs format (unit mm)*
G04 Created by KiCad (PCBNEW 6.0.4-6f826c9f35~116~ubuntu20.04.1) date 2022-04-13 00:37:52*
%MOMM*%
%LPD*%
G01*
G04 APERTURE LIST*
%ADD10C,0.150000*%
G04 APERTURE END LIST*
D10*
X91812666Y-104497142D02*
X91860285Y-104544761D01*
X92003142Y-104592380D01*
X92098380Y-104592380D01*
X92241238Y-104544761D01*
X92336476Y-104449523D01*
X92384095Y-104354285D01*
X92431714Y-104163809D01*
X92431714Y-104020952D01*
X92384095Y-103830476D01*
X92336476Y-103735238D01*
X92241238Y-103640000D01*
X92098380Y-103592380D01*
X92003142Y-103592380D01*
X91860285Y-103640000D01*
X91812666Y-103687619D01*
X91384095Y-104497142D02*
X91336476Y-104544761D01*
X91384095Y-104592380D01*
X91431714Y-104544761D01*
X91384095Y-104497142D01*
X91384095Y-104592380D01*
X90384095Y-103640000D02*
X90479333Y-103592380D01*
X90622190Y-103592380D01*
X90765047Y-103640000D01*
X90860285Y-103735238D01*
X90907904Y-103830476D01*
X90955523Y-104020952D01*
X90955523Y-104163809D01*
X90907904Y-104354285D01*
X90860285Y-104449523D01*
X90765047Y-104544761D01*
X90622190Y-104592380D01*
X90526952Y-104592380D01*
X90384095Y-104544761D01*
X90336476Y-104497142D01*
X90336476Y-104163809D01*
X90526952Y-104163809D01*
X89907904Y-104497142D02*
X89860285Y-104544761D01*
X89907904Y-104592380D01*
X89955523Y-104544761D01*
X89907904Y-104497142D01*
X89907904Y-104592380D01*
X89431714Y-104592380D02*
X89431714Y-103592380D01*
X88860285Y-104592380D02*
X89288857Y-104020952D01*
X88860285Y-103592380D02*
X89431714Y-104163809D01*
X88003142Y-103925714D02*
X88003142Y-104592380D01*
X88431714Y-103925714D02*
X88431714Y-104449523D01*
X88384095Y-104544761D01*
X88288857Y-104592380D01*
X88146000Y-104592380D01*
X88050761Y-104544761D01*
X88003142Y-104497142D01*
X87526952Y-104592380D02*
X87526952Y-103925714D01*
X87526952Y-104116190D02*
X87479333Y-104020952D01*
X87431714Y-103973333D01*
X87336476Y-103925714D01*
X87241238Y-103925714D01*
X87003142Y-103925714D02*
X86479333Y-103925714D01*
X87003142Y-104592380D01*
X86479333Y-104592380D01*
X86098380Y-104592380D02*
X86098380Y-103592380D01*
X86003142Y-104211428D02*
X85717428Y-104592380D01*
X85717428Y-103925714D02*
X86098380Y-104306666D01*
X84907904Y-104544761D02*
X85003142Y-104592380D01*
X85193619Y-104592380D01*
X85288857Y-104544761D01*
X85336476Y-104449523D01*
X85336476Y-104068571D01*
X85288857Y-103973333D01*
X85193619Y-103925714D01*
X85003142Y-103925714D01*
X84907904Y-103973333D01*
X84860285Y-104068571D01*
X84860285Y-104163809D01*
X85336476Y-104259047D01*
X103115047Y-125277619D02*
X103067428Y-125230000D01*
X102972190Y-125182380D01*
X102734095Y-125182380D01*
X102638857Y-125230000D01*
X102591238Y-125277619D01*
X102543619Y-125372857D01*
X102543619Y-125468095D01*
X102591238Y-125610952D01*
X103162666Y-126182380D01*
X102543619Y-126182380D01*
X101924571Y-125182380D02*
X101829333Y-125182380D01*
X101734095Y-125230000D01*
X101686476Y-125277619D01*
X101638857Y-125372857D01*
X101591238Y-125563333D01*
X101591238Y-125801428D01*
X101638857Y-125991904D01*
X101686476Y-126087142D01*
X101734095Y-126134761D01*
X101829333Y-126182380D01*
X101924571Y-126182380D01*
X102019809Y-126134761D01*
X102067428Y-126087142D01*
X102115047Y-125991904D01*
X102162666Y-125801428D01*
X102162666Y-125563333D01*
X102115047Y-125372857D01*
X102067428Y-125277619D01*
X102019809Y-125230000D01*
X101924571Y-125182380D01*
X101210285Y-125277619D02*
X101162666Y-125230000D01*
X101067428Y-125182380D01*
X100829333Y-125182380D01*
X100734095Y-125230000D01*
X100686476Y-125277619D01*
X100638857Y-125372857D01*
X100638857Y-125468095D01*
X100686476Y-125610952D01*
X101257904Y-126182380D01*
X100638857Y-126182380D01*
X100257904Y-125277619D02*
X100210285Y-125230000D01*
X100115047Y-125182380D01*
X99876952Y-125182380D01*
X99781714Y-125230000D01*
X99734095Y-125277619D01*
X99686476Y-125372857D01*
X99686476Y-125468095D01*
X99734095Y-125610952D01*
X100305523Y-126182380D01*
X99686476Y-126182380D01*
X99257904Y-125801428D02*
X98496000Y-125801428D01*
X97829333Y-125182380D02*
X97734095Y-125182380D01*
X97638857Y-125230000D01*
X97591238Y-125277619D01*
X97543619Y-125372857D01*
X97496000Y-125563333D01*
X97496000Y-125801428D01*
X97543619Y-125991904D01*
X97591238Y-126087142D01*
X97638857Y-126134761D01*
X97734095Y-126182380D01*
X97829333Y-126182380D01*
X97924571Y-126134761D01*
X97972190Y-126087142D01*
X98019809Y-125991904D01*
X98067428Y-125801428D01*
X98067428Y-125563333D01*
X98019809Y-125372857D01*
X97972190Y-125277619D01*
X97924571Y-125230000D01*
X97829333Y-125182380D01*
X96638857Y-125515714D02*
X96638857Y-126182380D01*
X96876952Y-125134761D02*
X97115047Y-125849047D01*
X96496000Y-125849047D01*
X96115047Y-125801428D02*
X95353142Y-125801428D01*
X94924571Y-125277619D02*
X94876952Y-125230000D01*
X94781714Y-125182380D01*
X94543619Y-125182380D01*
X94448380Y-125230000D01*
X94400761Y-125277619D01*
X94353142Y-125372857D01*
X94353142Y-125468095D01*
X94400761Y-125610952D01*
X94972190Y-126182380D01*
X94353142Y-126182380D01*
X93734095Y-125182380D02*
X93638857Y-125182380D01*
X93543619Y-125230000D01*
X93496000Y-125277619D01*
X93448380Y-125372857D01*
X93400761Y-125563333D01*
X93400761Y-125801428D01*
X93448380Y-125991904D01*
X93496000Y-126087142D01*
X93543619Y-126134761D01*
X93638857Y-126182380D01*
X93734095Y-126182380D01*
X93829333Y-126134761D01*
X93876952Y-126087142D01*
X93924571Y-125991904D01*
X93972190Y-125801428D01*
X93972190Y-125563333D01*
X93924571Y-125372857D01*
X93876952Y-125277619D01*
X93829333Y-125230000D01*
X93734095Y-125182380D01*
X91638857Y-126182380D02*
X91972190Y-125706190D01*
X92210285Y-126182380D02*
X92210285Y-125182380D01*
X91829333Y-125182380D01*
X91734095Y-125230000D01*
X91686476Y-125277619D01*
X91638857Y-125372857D01*
X91638857Y-125515714D01*
X91686476Y-125610952D01*
X91734095Y-125658571D01*
X91829333Y-125706190D01*
X92210285Y-125706190D01*
X90829333Y-126134761D02*
X90924571Y-126182380D01*
X91115047Y-126182380D01*
X91210285Y-126134761D01*
X91257904Y-126039523D01*
X91257904Y-125658571D01*
X91210285Y-125563333D01*
X91115047Y-125515714D01*
X90924571Y-125515714D01*
X90829333Y-125563333D01*
X90781714Y-125658571D01*
X90781714Y-125753809D01*
X91257904Y-125849047D01*
X90448380Y-125515714D02*
X90210285Y-126182380D01*
X89972190Y-125515714D01*
X88305523Y-126182380D02*
X88876952Y-126182380D01*
X88591238Y-126182380D02*
X88591238Y-125182380D01*
X88686476Y-125325238D01*
X88781714Y-125420476D01*
X88876952Y-125468095D01*
X87876952Y-126087142D02*
X87829333Y-126134761D01*
X87876952Y-126182380D01*
X87924571Y-126134761D01*
X87876952Y-126087142D01*
X87876952Y-126182380D01*
X87210285Y-125182380D02*
X87115047Y-125182380D01*
X87019809Y-125230000D01*
X86972190Y-125277619D01*
X86924571Y-125372857D01*
X86876952Y-125563333D01*
X86876952Y-125801428D01*
X86924571Y-125991904D01*
X86972190Y-126087142D01*
X87019809Y-126134761D01*
X87115047Y-126182380D01*
X87210285Y-126182380D01*
X87305523Y-126134761D01*
X87353142Y-126087142D01*
X87400761Y-125991904D01*
X87448380Y-125801428D01*
X87448380Y-125563333D01*
X87400761Y-125372857D01*
X87353142Y-125277619D01*
X87305523Y-125230000D01*
X87210285Y-125182380D01*
M02*
