%TF.GenerationSoftware,KiCad,Pcbnew,6.0.4-6f826c9f35~116~ubuntu20.04.1*%
%TF.CreationDate,2022-04-13T00:37:52-07:00*%
%TF.ProjectId,PIC_Timer,5049435f-5469-46d6-9572-2e6b69636164,rev?*%
%TF.SameCoordinates,Original*%
%TF.FileFunction,Legend,Top*%
%TF.FilePolarity,Positive*%
%FSLAX46Y46*%
G04 Gerber Fmt 4.6, Leading zero omitted, Abs format (unit mm)*
G04 Created by KiCad (PCBNEW 6.0.4-6f826c9f35~116~ubuntu20.04.1) date 2022-04-13 00:37:52*
%MOMM*%
%LPD*%
G01*
G04 APERTURE LIST*
%ADD10C,0.150000*%
%ADD11C,0.120000*%
G04 APERTURE END LIST*
D10*
X85420571Y-125072857D02*
X86106285Y-125072857D01*
X85763428Y-126272857D02*
X85763428Y-125072857D01*
X86506285Y-126272857D02*
X86506285Y-125472857D01*
X86506285Y-125701428D02*
X86563428Y-125587142D01*
X86620571Y-125530000D01*
X86734857Y-125472857D01*
X86849142Y-125472857D01*
X87249142Y-126272857D02*
X87249142Y-125472857D01*
X87249142Y-125072857D02*
X87192000Y-125130000D01*
X87249142Y-125187142D01*
X87306285Y-125130000D01*
X87249142Y-125072857D01*
X87249142Y-125187142D01*
X88334857Y-125472857D02*
X88334857Y-126444285D01*
X88277714Y-126558571D01*
X88220571Y-126615714D01*
X88106285Y-126672857D01*
X87934857Y-126672857D01*
X87820571Y-126615714D01*
X88334857Y-126215714D02*
X88220571Y-126272857D01*
X87992000Y-126272857D01*
X87877714Y-126215714D01*
X87820571Y-126158571D01*
X87763428Y-126044285D01*
X87763428Y-125701428D01*
X87820571Y-125587142D01*
X87877714Y-125530000D01*
X87992000Y-125472857D01*
X88220571Y-125472857D01*
X88334857Y-125530000D01*
X89420571Y-125472857D02*
X89420571Y-126444285D01*
X89363428Y-126558571D01*
X89306285Y-126615714D01*
X89192000Y-126672857D01*
X89020571Y-126672857D01*
X88906285Y-126615714D01*
X89420571Y-126215714D02*
X89306285Y-126272857D01*
X89077714Y-126272857D01*
X88963428Y-126215714D01*
X88906285Y-126158571D01*
X88849142Y-126044285D01*
X88849142Y-125701428D01*
X88906285Y-125587142D01*
X88963428Y-125530000D01*
X89077714Y-125472857D01*
X89306285Y-125472857D01*
X89420571Y-125530000D01*
X90449142Y-126215714D02*
X90334857Y-126272857D01*
X90106285Y-126272857D01*
X89992000Y-126215714D01*
X89934857Y-126101428D01*
X89934857Y-125644285D01*
X89992000Y-125530000D01*
X90106285Y-125472857D01*
X90334857Y-125472857D01*
X90449142Y-125530000D01*
X90506285Y-125644285D01*
X90506285Y-125758571D01*
X89934857Y-125872857D01*
X91020571Y-126272857D02*
X91020571Y-125472857D01*
X91020571Y-125701428D02*
X91077714Y-125587142D01*
X91134857Y-125530000D01*
X91249142Y-125472857D01*
X91363428Y-125472857D01*
X85886978Y-104045838D02*
X86058407Y-104102981D01*
X86115550Y-104160124D01*
X86172693Y-104274410D01*
X86172693Y-104445838D01*
X86115550Y-104560124D01*
X86058407Y-104617267D01*
X85944121Y-104674410D01*
X85486978Y-104674410D01*
X85486978Y-103474410D01*
X85886978Y-103474410D01*
X86001264Y-103531553D01*
X86058407Y-103588695D01*
X86115550Y-103702981D01*
X86115550Y-103817267D01*
X86058407Y-103931553D01*
X86001264Y-103988695D01*
X85886978Y-104045838D01*
X85486978Y-104045838D01*
X87201264Y-104674410D02*
X87201264Y-104045838D01*
X87144121Y-103931553D01*
X87029835Y-103874410D01*
X86801264Y-103874410D01*
X86686978Y-103931553D01*
X87201264Y-104617267D02*
X87086978Y-104674410D01*
X86801264Y-104674410D01*
X86686978Y-104617267D01*
X86629835Y-104502981D01*
X86629835Y-104388695D01*
X86686978Y-104274410D01*
X86801264Y-104217267D01*
X87086978Y-104217267D01*
X87201264Y-104160124D01*
X87601264Y-103874410D02*
X88058407Y-103874410D01*
X87772693Y-103474410D02*
X87772693Y-104502981D01*
X87829835Y-104617267D01*
X87944121Y-104674410D01*
X88058407Y-104674410D01*
X88286978Y-103874410D02*
X88744121Y-103874410D01*
X88458407Y-103474410D02*
X88458407Y-104502981D01*
X88515550Y-104617267D01*
X88629835Y-104674410D01*
X88744121Y-104674410D01*
X89601264Y-104617267D02*
X89486978Y-104674410D01*
X89258407Y-104674410D01*
X89144121Y-104617267D01*
X89086978Y-104502981D01*
X89086978Y-104045838D01*
X89144121Y-103931553D01*
X89258407Y-103874410D01*
X89486978Y-103874410D01*
X89601264Y-103931553D01*
X89658407Y-104045838D01*
X89658407Y-104160124D01*
X89086978Y-104274410D01*
X90172693Y-104674410D02*
X90172693Y-103874410D01*
X90172693Y-104102981D02*
X90229835Y-103988695D01*
X90286978Y-103931553D01*
X90401264Y-103874410D01*
X90515550Y-103874410D01*
X90801264Y-103874410D02*
X91086978Y-104674410D01*
X91372693Y-103874410D02*
X91086978Y-104674410D01*
X90972693Y-104960124D01*
X90915550Y-105017267D01*
X90801264Y-105074410D01*
X93653428Y-126215714D02*
X93824857Y-126272857D01*
X94110571Y-126272857D01*
X94224857Y-126215714D01*
X94282000Y-126158571D01*
X94339142Y-126044285D01*
X94339142Y-125930000D01*
X94282000Y-125815714D01*
X94224857Y-125758571D01*
X94110571Y-125701428D01*
X93882000Y-125644285D01*
X93767714Y-125587142D01*
X93710571Y-125530000D01*
X93653428Y-125415714D01*
X93653428Y-125301428D01*
X93710571Y-125187142D01*
X93767714Y-125130000D01*
X93882000Y-125072857D01*
X94167714Y-125072857D01*
X94339142Y-125130000D01*
X95024857Y-126272857D02*
X94910571Y-126215714D01*
X94853428Y-126158571D01*
X94796285Y-126044285D01*
X94796285Y-125701428D01*
X94853428Y-125587142D01*
X94910571Y-125530000D01*
X95024857Y-125472857D01*
X95196285Y-125472857D01*
X95310571Y-125530000D01*
X95367714Y-125587142D01*
X95424857Y-125701428D01*
X95424857Y-126044285D01*
X95367714Y-126158571D01*
X95310571Y-126215714D01*
X95196285Y-126272857D01*
X95024857Y-126272857D01*
X96110571Y-126272857D02*
X95996285Y-126215714D01*
X95939142Y-126101428D01*
X95939142Y-125072857D01*
X97024857Y-126215714D02*
X96910571Y-126272857D01*
X96682000Y-126272857D01*
X96567714Y-126215714D01*
X96510571Y-126101428D01*
X96510571Y-125644285D01*
X96567714Y-125530000D01*
X96682000Y-125472857D01*
X96910571Y-125472857D01*
X97024857Y-125530000D01*
X97082000Y-125644285D01*
X97082000Y-125758571D01*
X96510571Y-125872857D01*
X97596285Y-125472857D02*
X97596285Y-126272857D01*
X97596285Y-125587142D02*
X97653428Y-125530000D01*
X97767714Y-125472857D01*
X97939142Y-125472857D01*
X98053428Y-125530000D01*
X98110571Y-125644285D01*
X98110571Y-126272857D01*
X98853428Y-126272857D02*
X98739142Y-126215714D01*
X98682000Y-126158571D01*
X98624857Y-126044285D01*
X98624857Y-125701428D01*
X98682000Y-125587142D01*
X98739142Y-125530000D01*
X98853428Y-125472857D01*
X99024857Y-125472857D01*
X99139142Y-125530000D01*
X99196285Y-125587142D01*
X99253428Y-125701428D01*
X99253428Y-126044285D01*
X99196285Y-126158571D01*
X99139142Y-126215714D01*
X99024857Y-126272857D01*
X98853428Y-126272857D01*
X99767714Y-126272857D02*
X99767714Y-125472857D01*
X99767714Y-125072857D02*
X99710571Y-125130000D01*
X99767714Y-125187142D01*
X99824857Y-125130000D01*
X99767714Y-125072857D01*
X99767714Y-125187142D01*
X100853428Y-126272857D02*
X100853428Y-125072857D01*
X100853428Y-126215714D02*
X100739142Y-126272857D01*
X100510571Y-126272857D01*
X100396285Y-126215714D01*
X100339142Y-126158571D01*
X100282000Y-126044285D01*
X100282000Y-125701428D01*
X100339142Y-125587142D01*
X100396285Y-125530000D01*
X100510571Y-125472857D01*
X100739142Y-125472857D01*
X100853428Y-125530000D01*
%TO.C,J3*%
X97202666Y-122896380D02*
X97202666Y-123610666D01*
X97155047Y-123753523D01*
X97059809Y-123848761D01*
X96916952Y-123896380D01*
X96821714Y-123896380D01*
X97583619Y-122896380D02*
X98202666Y-122896380D01*
X97869333Y-123277333D01*
X98012190Y-123277333D01*
X98107428Y-123324952D01*
X98155047Y-123372571D01*
X98202666Y-123467809D01*
X98202666Y-123705904D01*
X98155047Y-123801142D01*
X98107428Y-123848761D01*
X98012190Y-123896380D01*
X97726476Y-123896380D01*
X97631238Y-123848761D01*
X97583619Y-123801142D01*
%TO.C,Q1*%
X106584761Y-106825619D02*
X106489523Y-106778000D01*
X106394285Y-106682761D01*
X106251428Y-106539904D01*
X106156190Y-106492285D01*
X106060952Y-106492285D01*
X106108571Y-106730380D02*
X106013333Y-106682761D01*
X105918095Y-106587523D01*
X105870476Y-106397047D01*
X105870476Y-106063714D01*
X105918095Y-105873238D01*
X106013333Y-105778000D01*
X106108571Y-105730380D01*
X106299047Y-105730380D01*
X106394285Y-105778000D01*
X106489523Y-105873238D01*
X106537142Y-106063714D01*
X106537142Y-106397047D01*
X106489523Y-106587523D01*
X106394285Y-106682761D01*
X106299047Y-106730380D01*
X106108571Y-106730380D01*
X107489523Y-106730380D02*
X106918095Y-106730380D01*
X107203809Y-106730380D02*
X107203809Y-105730380D01*
X107108571Y-105873238D01*
X107013333Y-105968476D01*
X106918095Y-106016095D01*
%TO.C,D1*%
X90580437Y-113006095D02*
X89580437Y-113006095D01*
X89580437Y-112768000D01*
X89628057Y-112625142D01*
X89723295Y-112529904D01*
X89818533Y-112482285D01*
X90009009Y-112434666D01*
X90151866Y-112434666D01*
X90342342Y-112482285D01*
X90437580Y-112529904D01*
X90532818Y-112625142D01*
X90580437Y-112768000D01*
X90580437Y-113006095D01*
X90580437Y-111482285D02*
X90580437Y-112053714D01*
X90580437Y-111768000D02*
X89580437Y-111768000D01*
X89723295Y-111863238D01*
X89818533Y-111958476D01*
X89866152Y-112053714D01*
%TO.C,D2*%
X102385904Y-123952751D02*
X102385904Y-122952751D01*
X102624000Y-122952751D01*
X102766857Y-123000371D01*
X102862095Y-123095609D01*
X102909714Y-123190847D01*
X102957333Y-123381323D01*
X102957333Y-123524180D01*
X102909714Y-123714656D01*
X102862095Y-123809894D01*
X102766857Y-123905132D01*
X102624000Y-123952751D01*
X102385904Y-123952751D01*
X103338285Y-123047990D02*
X103385904Y-123000371D01*
X103481142Y-122952751D01*
X103719238Y-122952751D01*
X103814476Y-123000371D01*
X103862095Y-123047990D01*
X103909714Y-123143228D01*
X103909714Y-123238466D01*
X103862095Y-123381323D01*
X103290666Y-123952751D01*
X103909714Y-123952751D01*
%TO.C,R4*%
X106737380Y-115482666D02*
X106261190Y-115816000D01*
X106737380Y-116054095D02*
X105737380Y-116054095D01*
X105737380Y-115673142D01*
X105785000Y-115577904D01*
X105832619Y-115530285D01*
X105927857Y-115482666D01*
X106070714Y-115482666D01*
X106165952Y-115530285D01*
X106213571Y-115577904D01*
X106261190Y-115673142D01*
X106261190Y-116054095D01*
X106070714Y-114625523D02*
X106737380Y-114625523D01*
X105689761Y-114863619D02*
X106404047Y-115101714D01*
X106404047Y-114482666D01*
%TO.C,R3*%
X106807380Y-109386666D02*
X106331190Y-109720000D01*
X106807380Y-109958095D02*
X105807380Y-109958095D01*
X105807380Y-109577142D01*
X105855000Y-109481904D01*
X105902619Y-109434285D01*
X105997857Y-109386666D01*
X106140714Y-109386666D01*
X106235952Y-109434285D01*
X106283571Y-109481904D01*
X106331190Y-109577142D01*
X106331190Y-109958095D01*
X105807380Y-109053333D02*
X105807380Y-108434285D01*
X106188333Y-108767619D01*
X106188333Y-108624761D01*
X106235952Y-108529523D01*
X106283571Y-108481904D01*
X106378809Y-108434285D01*
X106616904Y-108434285D01*
X106712142Y-108481904D01*
X106759761Y-108529523D01*
X106807380Y-108624761D01*
X106807380Y-108910476D01*
X106759761Y-109005714D01*
X106712142Y-109053333D01*
%TO.C,R1*%
X85685333Y-113855380D02*
X85352000Y-113379190D01*
X85113904Y-113855380D02*
X85113904Y-112855380D01*
X85494857Y-112855380D01*
X85590095Y-112903000D01*
X85637714Y-112950619D01*
X85685333Y-113045857D01*
X85685333Y-113188714D01*
X85637714Y-113283952D01*
X85590095Y-113331571D01*
X85494857Y-113379190D01*
X85113904Y-113379190D01*
X86637714Y-113855380D02*
X86066285Y-113855380D01*
X86352000Y-113855380D02*
X86352000Y-112855380D01*
X86256761Y-112998238D01*
X86161523Y-113093476D01*
X86066285Y-113141095D01*
%TO.C,R2*%
X106949380Y-112434666D02*
X106473190Y-112768000D01*
X106949380Y-113006095D02*
X105949380Y-113006095D01*
X105949380Y-112625142D01*
X105997000Y-112529904D01*
X106044619Y-112482285D01*
X106139857Y-112434666D01*
X106282714Y-112434666D01*
X106377952Y-112482285D01*
X106425571Y-112529904D01*
X106473190Y-112625142D01*
X106473190Y-113006095D01*
X106044619Y-112053714D02*
X105997000Y-112006095D01*
X105949380Y-111910857D01*
X105949380Y-111672761D01*
X105997000Y-111577523D01*
X106044619Y-111529904D01*
X106139857Y-111482285D01*
X106235095Y-111482285D01*
X106377952Y-111529904D01*
X106949380Y-112101333D01*
X106949380Y-111482285D01*
%TO.C,J2*%
X88312666Y-122896380D02*
X88312666Y-123610666D01*
X88265047Y-123753523D01*
X88169809Y-123848761D01*
X88026952Y-123896380D01*
X87931714Y-123896380D01*
X88741238Y-122991619D02*
X88788857Y-122944000D01*
X88884095Y-122896380D01*
X89122190Y-122896380D01*
X89217428Y-122944000D01*
X89265047Y-122991619D01*
X89312666Y-123086857D01*
X89312666Y-123182095D01*
X89265047Y-123324952D01*
X88693619Y-123896380D01*
X89312666Y-123896380D01*
%TO.C,J1*%
X88058666Y-105878380D02*
X88058666Y-106592666D01*
X88011047Y-106735523D01*
X87915809Y-106830761D01*
X87772952Y-106878380D01*
X87677714Y-106878380D01*
X89058666Y-106878380D02*
X88487238Y-106878380D01*
X88772952Y-106878380D02*
X88772952Y-105878380D01*
X88677714Y-106021238D01*
X88582476Y-106116476D01*
X88487238Y-106164095D01*
%TO.C,C1*%
X89708189Y-118213142D02*
X89660570Y-118260761D01*
X89517713Y-118308380D01*
X89422475Y-118308380D01*
X89279617Y-118260761D01*
X89184379Y-118165523D01*
X89136760Y-118070285D01*
X89089141Y-117879809D01*
X89089141Y-117736952D01*
X89136760Y-117546476D01*
X89184379Y-117451238D01*
X89279617Y-117356000D01*
X89422475Y-117308380D01*
X89517713Y-117308380D01*
X89660570Y-117356000D01*
X89708189Y-117403619D01*
X90660570Y-118308380D02*
X90089141Y-118308380D01*
X90374856Y-118308380D02*
X90374856Y-117308380D01*
X90279617Y-117451238D01*
X90184379Y-117546476D01*
X90089141Y-117594095D01*
%TO.C,Q2*%
X106140619Y-122269238D02*
X106093000Y-122364476D01*
X105997761Y-122459714D01*
X105854904Y-122602571D01*
X105807285Y-122697809D01*
X105807285Y-122793047D01*
X106045380Y-122745428D02*
X105997761Y-122840666D01*
X105902523Y-122935904D01*
X105712047Y-122983523D01*
X105378714Y-122983523D01*
X105188238Y-122935904D01*
X105093000Y-122840666D01*
X105045380Y-122745428D01*
X105045380Y-122554952D01*
X105093000Y-122459714D01*
X105188238Y-122364476D01*
X105378714Y-122316857D01*
X105712047Y-122316857D01*
X105902523Y-122364476D01*
X105997761Y-122459714D01*
X106045380Y-122554952D01*
X106045380Y-122745428D01*
X105140619Y-121935904D02*
X105093000Y-121888285D01*
X105045380Y-121793047D01*
X105045380Y-121554952D01*
X105093000Y-121459714D01*
X105140619Y-121412095D01*
X105235857Y-121364476D01*
X105331095Y-121364476D01*
X105473952Y-121412095D01*
X106045380Y-121983523D01*
X106045380Y-121364476D01*
%TO.C,U1*%
X97536095Y-103013380D02*
X97536095Y-103822904D01*
X97583714Y-103918142D01*
X97631333Y-103965761D01*
X97726571Y-104013380D01*
X97917047Y-104013380D01*
X98012285Y-103965761D01*
X98059904Y-103918142D01*
X98107523Y-103822904D01*
X98107523Y-103013380D01*
X99107523Y-104013380D02*
X98536095Y-104013380D01*
X98821809Y-104013380D02*
X98821809Y-103013380D01*
X98726571Y-103156238D01*
X98631333Y-103251476D01*
X98536095Y-103299095D01*
%TO.C,U2*%
X97536095Y-111466380D02*
X97536095Y-112275904D01*
X97583714Y-112371142D01*
X97631333Y-112418761D01*
X97726571Y-112466380D01*
X97917047Y-112466380D01*
X98012285Y-112418761D01*
X98059904Y-112371142D01*
X98107523Y-112275904D01*
X98107523Y-111466380D01*
X98536095Y-111561619D02*
X98583714Y-111514000D01*
X98678952Y-111466380D01*
X98917047Y-111466380D01*
X99012285Y-111514000D01*
X99059904Y-111561619D01*
X99107523Y-111656857D01*
X99107523Y-111752095D01*
X99059904Y-111894952D01*
X98488476Y-112466380D01*
X99107523Y-112466380D01*
D11*
%TO.C,J3*%
X96894500Y-127010000D02*
X97664500Y-127010000D01*
X100074500Y-120530000D02*
X100074500Y-119140000D01*
X94484500Y-119390000D02*
X100074500Y-119390000D01*
X96894500Y-127270000D02*
X96894500Y-127010000D01*
X96894500Y-127270000D02*
X93214500Y-127270000D01*
X93214500Y-122440000D02*
X93214500Y-127270000D01*
X92874500Y-120240000D02*
X92874500Y-122440000D01*
X94484500Y-120530000D02*
X94484500Y-119140000D01*
X94174500Y-120240000D02*
X92874500Y-120240000D01*
X97664500Y-127010000D02*
X97664500Y-127270000D01*
X97664500Y-127270000D02*
X101344500Y-127270000D01*
X94484500Y-119140000D02*
X100074500Y-119140000D01*
X101344500Y-127270000D02*
X101344500Y-122440000D01*
X101344500Y-120530000D02*
X101344500Y-122440000D01*
X93214500Y-120530000D02*
X93214500Y-122440000D01*
X93214500Y-120530000D02*
X101344500Y-120530000D01*
X94484500Y-120280000D02*
X100074500Y-120280000D01*
%TO.C,Q1*%
X108480000Y-102798000D02*
X104880000Y-102798000D01*
X104841522Y-102809522D02*
G75*
G03*
X106680000Y-107248000I1838478J-1838478D01*
G01*
X106680000Y-107248001D02*
G75*
G03*
X108518478Y-102809522I0J2600001D01*
G01*
%TO.C,D1*%
X90128057Y-112268000D02*
X90241686Y-112268000D01*
X90128057Y-112268000D02*
G75*
G03*
X90128057Y-112268000I-1326371J0D01*
G01*
%TO.C,D2*%
X103124000Y-123500371D02*
X103124000Y-123614000D01*
X104450371Y-122174000D02*
G75*
G03*
X104450371Y-122174000I-1326371J0D01*
G01*
%TO.C,R4*%
X109095000Y-115316000D02*
G75*
G03*
X109095000Y-115316000I-1370000J0D01*
G01*
X106355000Y-115316000D02*
X106285000Y-115316000D01*
%TO.C,R3*%
X106355000Y-109220000D02*
X106285000Y-109220000D01*
X109095000Y-109220000D02*
G75*
G03*
X109095000Y-109220000I-1370000J0D01*
G01*
%TO.C,R1*%
X85852000Y-113438000D02*
X85852000Y-113368000D01*
X87222000Y-114808000D02*
G75*
G03*
X87222000Y-114808000I-1370000J0D01*
G01*
%TO.C,R2*%
X106497000Y-112268000D02*
G75*
G03*
X106497000Y-112268000I-1370000J0D01*
G01*
X106497000Y-112268000D02*
X106567000Y-112268000D01*
%TO.C,J2*%
X85594500Y-120280000D02*
X91184500Y-120280000D01*
X84324500Y-120530000D02*
X92454500Y-120530000D01*
X84324500Y-120530000D02*
X84324500Y-122440000D01*
X92454500Y-120530000D02*
X92454500Y-122440000D01*
X92454500Y-127270000D02*
X92454500Y-122440000D01*
X85594500Y-119140000D02*
X91184500Y-119140000D01*
X88774500Y-127270000D02*
X92454500Y-127270000D01*
X88774500Y-127010000D02*
X88774500Y-127270000D01*
X85284500Y-120240000D02*
X83984500Y-120240000D01*
X85594500Y-120530000D02*
X85594500Y-119140000D01*
X83984500Y-120240000D02*
X83984500Y-122440000D01*
X84324500Y-122440000D02*
X84324500Y-127270000D01*
X88004500Y-127270000D02*
X84324500Y-127270000D01*
X88004500Y-127270000D02*
X88004500Y-127010000D01*
X85594500Y-119390000D02*
X91184500Y-119390000D01*
X91184500Y-120530000D02*
X91184500Y-119140000D01*
X88004500Y-127010000D02*
X88774500Y-127010000D01*
%TO.C,J1*%
X91443500Y-109590000D02*
X85853500Y-109590000D01*
X92713500Y-109340000D02*
X84583500Y-109340000D01*
X92713500Y-109340000D02*
X92713500Y-107430000D01*
X84583500Y-109340000D02*
X84583500Y-107430000D01*
X84583500Y-102600000D02*
X84583500Y-107430000D01*
X91443500Y-110730000D02*
X85853500Y-110730000D01*
X88263500Y-102600000D02*
X84583500Y-102600000D01*
X88263500Y-102860000D02*
X88263500Y-102600000D01*
X91753500Y-109630000D02*
X93053500Y-109630000D01*
X91443500Y-109340000D02*
X91443500Y-110730000D01*
X93053500Y-109630000D02*
X93053500Y-107430000D01*
X92713500Y-107430000D02*
X92713500Y-102600000D01*
X89033500Y-102600000D02*
X92713500Y-102600000D01*
X89033500Y-102600000D02*
X89033500Y-102860000D01*
X91443500Y-110480000D02*
X85853500Y-110480000D01*
X85853500Y-109340000D02*
X85853500Y-110730000D01*
X89033500Y-102860000D02*
X88263500Y-102860000D01*
%TO.C,C1*%
X92461144Y-117892000D02*
X92461144Y-117442000D01*
X92686144Y-117667000D02*
X92236144Y-117667000D01*
X92268597Y-115272000D02*
G75*
G03*
X92268597Y-117392000I-2119741J-1060000D01*
G01*
%TO.C,Q2*%
X104609000Y-127294000D02*
X104609000Y-117054000D01*
X104609000Y-124024000D02*
X106119000Y-124024000D01*
X104609000Y-120323000D02*
X106119000Y-120323000D01*
X104609000Y-127294000D02*
X109250000Y-127294000D01*
X109250000Y-127294000D02*
X109250000Y-117054000D01*
X104609000Y-117054000D02*
X109250000Y-117054000D01*
X106119000Y-127294000D02*
X106119000Y-117054000D01*
%TO.C,U1*%
X93432000Y-104341000D02*
X103672000Y-104341000D01*
X103672000Y-102831000D02*
X103672000Y-107472000D01*
X93432000Y-107472000D02*
X103672000Y-107472000D01*
X93432000Y-102831000D02*
X93432000Y-107472000D01*
X100403000Y-102831000D02*
X100403000Y-104341000D01*
X96702000Y-102831000D02*
X96702000Y-104341000D01*
X93432000Y-102831000D02*
X103672000Y-102831000D01*
%TO.C,U2*%
X95638000Y-118160000D02*
X97288000Y-118160000D01*
X100938000Y-118160000D02*
X100938000Y-107880000D01*
X95638000Y-107880000D02*
X95638000Y-118160000D01*
X99288000Y-118160000D02*
X100938000Y-118160000D01*
X100938000Y-107880000D02*
X95638000Y-107880000D01*
X99288000Y-118160000D02*
G75*
G03*
X97288000Y-118160000I-1000000J0D01*
G01*
%TD*%
M02*
