%TF.GenerationSoftware,KiCad,Pcbnew,6.0.4-6f826c9f35~116~ubuntu20.04.1*%
%TF.CreationDate,2022-04-13T00:37:51-07:00*%
%TF.ProjectId,PIC_Timer,5049435f-5469-46d6-9572-2e6b69636164,rev?*%
%TF.SameCoordinates,Original*%
%TF.FileFunction,Copper,L1,Top*%
%TF.FilePolarity,Positive*%
%FSLAX46Y46*%
G04 Gerber Fmt 4.6, Leading zero omitted, Abs format (unit mm)*
G04 Created by KiCad (PCBNEW 6.0.4-6f826c9f35~116~ubuntu20.04.1) date 2022-04-13 00:37:51*
%MOMM*%
%LPD*%
G01*
G04 APERTURE LIST*
%TA.AperFunction,ComponentPad*%
%ADD10C,3.000000*%
%TD*%
%TA.AperFunction,ComponentPad*%
%ADD11R,3.000000X3.000000*%
%TD*%
%TA.AperFunction,ComponentPad*%
%ADD12R,1.050000X1.500000*%
%TD*%
%TA.AperFunction,ComponentPad*%
%ADD13O,1.050000X1.500000*%
%TD*%
%TA.AperFunction,ComponentPad*%
%ADD14R,1.600000X1.600000*%
%TD*%
%TA.AperFunction,ComponentPad*%
%ADD15O,1.600000X1.600000*%
%TD*%
%TA.AperFunction,ComponentPad*%
%ADD16C,1.600000*%
%TD*%
%TA.AperFunction,ComponentPad*%
%ADD17R,2.000000X1.905000*%
%TD*%
%TA.AperFunction,ComponentPad*%
%ADD18O,2.000000X1.905000*%
%TD*%
%TA.AperFunction,ComponentPad*%
%ADD19O,1.905000X2.000000*%
%TD*%
%TA.AperFunction,ComponentPad*%
%ADD20R,1.905000X2.000000*%
%TD*%
%TA.AperFunction,Conductor*%
%ADD21C,1.500000*%
%TD*%
%TA.AperFunction,Conductor*%
%ADD22C,0.250000*%
%TD*%
G04 APERTURE END LIST*
D10*
%TO.P,J3,2,Pin_2*%
%TO.N,Net-(D2-Pad1)*%
X99254500Y-122440000D03*
D11*
%TO.P,J3,1,Pin_1*%
%TO.N,GND*%
X95374500Y-122440000D03*
%TD*%
D12*
%TO.P,Q1,1,C*%
%TO.N,Net-(Q1-Pad1)*%
X107950000Y-104648000D03*
D13*
%TO.P,Q1,2,B*%
%TO.N,Net-(Q1-Pad2)*%
X106680000Y-104648000D03*
%TO.P,Q1,3,E*%
%TO.N,GND*%
X105410000Y-104648000D03*
%TD*%
D14*
%TO.P,D1,1,K*%
%TO.N,Net-(D1-Pad1)*%
X88801686Y-112268000D03*
D15*
%TO.P,D1,2,A*%
%TO.N,Net-(D1-Pad2)*%
X91341686Y-112268000D03*
%TD*%
D14*
%TO.P,D2,1,K*%
%TO.N,Net-(D2-Pad1)*%
X103124000Y-122174000D03*
D15*
%TO.P,D2,2,A*%
%TO.N,GND*%
X103124000Y-124714000D03*
%TD*%
%TO.P,R4,2*%
%TO.N,Net-(Q2-Pad1)*%
X105185000Y-115316000D03*
D16*
%TO.P,R4,1*%
%TO.N,Net-(Q1-Pad1)*%
X107725000Y-115316000D03*
%TD*%
%TO.P,R3,1*%
%TO.N,Net-(Q1-Pad1)*%
X107725000Y-109220000D03*
D15*
%TO.P,R3,2*%
%TO.N,+12V*%
X105185000Y-109220000D03*
%TD*%
D16*
%TO.P,R1,1*%
%TO.N,Net-(J2-Pad2)*%
X85852000Y-114808000D03*
D15*
%TO.P,R1,2*%
%TO.N,Net-(D1-Pad1)*%
X85852000Y-112268000D03*
%TD*%
%TO.P,R2,2*%
%TO.N,Net-(Q1-Pad2)*%
X107667000Y-112268000D03*
D16*
%TO.P,R2,1*%
%TO.N,Net-(R2-Pad1)*%
X105127000Y-112268000D03*
%TD*%
D11*
%TO.P,J2,1,Pin_1*%
%TO.N,GND*%
X86484500Y-122440000D03*
D10*
%TO.P,J2,2,Pin_2*%
%TO.N,Net-(J2-Pad2)*%
X90364500Y-122440000D03*
%TD*%
D11*
%TO.P,J1,1,Pin_1*%
%TO.N,GND*%
X90553500Y-107430000D03*
D10*
%TO.P,J1,2,Pin_2*%
%TO.N,+12V*%
X86673500Y-107430000D03*
%TD*%
D14*
%TO.P,C1,1*%
%TO.N,VDD*%
X91398856Y-116332000D03*
D16*
%TO.P,C1,2*%
%TO.N,GND*%
X88898856Y-116332000D03*
%TD*%
D17*
%TO.P,Q2,1,G*%
%TO.N,Net-(Q2-Pad1)*%
X107879000Y-124714000D03*
D18*
%TO.P,Q2,2,D*%
%TO.N,Net-(D2-Pad1)*%
X107879000Y-122174000D03*
%TO.P,Q2,3,S*%
%TO.N,+12V*%
X107879000Y-119634000D03*
%TD*%
D19*
%TO.P,U1,3,VO*%
%TO.N,VDD*%
X101092000Y-106101000D03*
%TO.P,U1,2,GND*%
%TO.N,GND*%
X98552000Y-106101000D03*
D20*
%TO.P,U1,1,VI*%
%TO.N,+12V*%
X96012000Y-106101000D03*
%TD*%
D14*
%TO.P,U2,1,VDD*%
%TO.N,VDD*%
X102098000Y-116830000D03*
D15*
%TO.P,U2,2,RA5*%
%TO.N,unconnected-(U2-Pad2)*%
X102098000Y-114290000D03*
%TO.P,U2,3,RA4*%
%TO.N,Net-(R2-Pad1)*%
X102098000Y-111750000D03*
%TO.P,U2,4,RA3*%
%TO.N,unconnected-(U2-Pad4)*%
X102098000Y-109210000D03*
%TO.P,U2,5,RA2*%
%TO.N,Net-(D1-Pad2)*%
X94478000Y-109210000D03*
%TO.P,U2,6,RA1*%
%TO.N,unconnected-(U2-Pad6)*%
X94478000Y-111750000D03*
%TO.P,U2,7,RA0*%
%TO.N,unconnected-(U2-Pad7)*%
X94478000Y-114290000D03*
%TO.P,U2,8,VSS*%
%TO.N,GND*%
X94478000Y-116830000D03*
%TD*%
D21*
%TO.N,Net-(D2-Pad1)*%
X103124000Y-122174000D02*
X107879000Y-122174000D01*
X99254500Y-122440000D02*
X102858000Y-122440000D01*
X102858000Y-122440000D02*
X103124000Y-122174000D01*
D22*
%TO.N,Net-(Q1-Pad2)*%
X106680000Y-104648000D02*
X106426000Y-104902000D01*
X106426000Y-104902000D02*
X106426000Y-111027000D01*
X106426000Y-111027000D02*
X107667000Y-112268000D01*
%TO.N,+12V*%
X105185000Y-109220000D02*
X103915000Y-110490000D01*
X103915000Y-110490000D02*
X99887817Y-110490000D01*
X99887817Y-110490000D02*
X99060000Y-111317817D01*
%TO.N,Net-(R2-Pad1)*%
X102098000Y-111750000D02*
X104609000Y-111750000D01*
X104609000Y-111750000D02*
X105127000Y-112268000D01*
D21*
%TO.N,+12V*%
X99060000Y-111317817D02*
X99060000Y-119126000D01*
X99568000Y-119634000D02*
X107879000Y-119634000D01*
X96012000Y-108269817D02*
X99060000Y-111317817D01*
X96012000Y-106101000D02*
X96012000Y-108269817D01*
X99060000Y-119126000D02*
X99568000Y-119634000D01*
D22*
%TO.N,Net-(J2-Pad2)*%
X85852000Y-114808000D02*
X85852000Y-117094000D01*
X85852000Y-117094000D02*
X90364500Y-121606500D01*
X90364500Y-121606500D02*
X90364500Y-122440000D01*
%TO.N,Net-(D1-Pad1)*%
X88801686Y-112268000D02*
X85852000Y-112268000D01*
%TO.N,Net-(D1-Pad2)*%
X94478000Y-109210000D02*
X91420000Y-112268000D01*
X91420000Y-112268000D02*
X91341686Y-112268000D01*
%TO.N,Net-(Q1-Pad1)*%
X107725000Y-109220000D02*
X107725000Y-110735700D01*
X107725000Y-110735700D02*
X108791511Y-111802211D01*
X108791511Y-111802211D02*
X108791511Y-114249489D01*
X108791511Y-114249489D02*
X107725000Y-115316000D01*
X107950000Y-104648000D02*
X107950000Y-108995000D01*
X107950000Y-108995000D02*
X107725000Y-109220000D01*
%TD*%
%TA.AperFunction,Conductor*%
%TO.N,GND*%
G36*
X95798248Y-109837116D02*
G01*
X95809474Y-109847078D01*
X97764595Y-111802199D01*
X97798621Y-111864511D01*
X97801500Y-111891294D01*
X97801500Y-119034604D01*
X97800422Y-119051051D01*
X97797521Y-119073086D01*
X97797786Y-119078698D01*
X97801360Y-119154488D01*
X97801500Y-119160424D01*
X97801500Y-119182999D01*
X97801750Y-119185796D01*
X97803819Y-119208988D01*
X97804178Y-119214248D01*
X97808104Y-119297488D01*
X97809354Y-119302947D01*
X97809355Y-119302952D01*
X97812108Y-119314970D01*
X97814789Y-119331899D01*
X97816383Y-119349762D01*
X97817865Y-119355178D01*
X97817865Y-119355180D01*
X97838370Y-119430133D01*
X97839656Y-119435251D01*
X97858258Y-119516470D01*
X97860460Y-119521632D01*
X97865294Y-119532967D01*
X97870927Y-119549142D01*
X97875663Y-119566451D01*
X97878079Y-119571516D01*
X97911539Y-119641667D01*
X97913710Y-119646476D01*
X97946397Y-119723109D01*
X97956251Y-119738110D01*
X97964654Y-119753025D01*
X97972378Y-119769218D01*
X97975648Y-119773769D01*
X97975650Y-119773772D01*
X98020999Y-119836881D01*
X98023989Y-119841232D01*
X98067196Y-119907010D01*
X98067202Y-119907018D01*
X98069735Y-119910874D01*
X98088257Y-119931662D01*
X98096490Y-119941939D01*
X98103471Y-119951654D01*
X98179423Y-120025258D01*
X98180251Y-120026060D01*
X98181660Y-120027448D01*
X98531088Y-120376876D01*
X98565114Y-120439188D01*
X98560049Y-120510003D01*
X98517502Y-120566839D01*
X98491428Y-120581868D01*
X98485783Y-120584276D01*
X98340530Y-120646232D01*
X98273496Y-120686351D01*
X98109225Y-120784664D01*
X98109221Y-120784667D01*
X98105543Y-120786868D01*
X97891818Y-120958094D01*
X97703308Y-121156742D01*
X97696545Y-121166154D01*
X97610822Y-121285450D01*
X97554827Y-121329098D01*
X97484124Y-121335544D01*
X97421159Y-121302741D01*
X97385925Y-121241105D01*
X97382499Y-121211924D01*
X97382499Y-120895331D01*
X97382129Y-120888510D01*
X97376605Y-120837648D01*
X97372979Y-120822396D01*
X97327824Y-120701946D01*
X97319286Y-120686351D01*
X97242785Y-120584276D01*
X97230224Y-120571715D01*
X97128149Y-120495214D01*
X97112554Y-120486676D01*
X96992106Y-120441522D01*
X96976851Y-120437895D01*
X96925986Y-120432369D01*
X96919172Y-120432000D01*
X95646615Y-120432000D01*
X95631376Y-120436475D01*
X95630171Y-120437865D01*
X95628500Y-120445548D01*
X95628500Y-124429884D01*
X95632975Y-124445123D01*
X95634365Y-124446328D01*
X95642048Y-124447999D01*
X96919169Y-124447999D01*
X96925990Y-124447629D01*
X96976852Y-124442105D01*
X96992104Y-124438479D01*
X97112554Y-124393324D01*
X97128149Y-124384786D01*
X97230224Y-124308285D01*
X97242785Y-124295724D01*
X97319286Y-124193649D01*
X97327824Y-124178054D01*
X97372978Y-124057606D01*
X97376605Y-124042351D01*
X97382131Y-123991486D01*
X97382500Y-123984672D01*
X97382500Y-123668105D01*
X97402502Y-123599984D01*
X97456158Y-123553491D01*
X97526432Y-123543387D01*
X97591012Y-123572881D01*
X97612339Y-123596736D01*
X97676774Y-123690490D01*
X97679661Y-123693663D01*
X97679662Y-123693664D01*
X97694498Y-123709969D01*
X97861082Y-123893043D01*
X98071175Y-124068707D01*
X98074816Y-124070991D01*
X98299524Y-124211951D01*
X98299528Y-124211953D01*
X98303164Y-124214234D01*
X98371044Y-124244883D01*
X98548845Y-124325164D01*
X98548849Y-124325166D01*
X98552757Y-124326930D01*
X98556877Y-124328150D01*
X98556876Y-124328150D01*
X98811223Y-124403491D01*
X98811227Y-124403492D01*
X98815336Y-124404709D01*
X98819570Y-124405357D01*
X98819575Y-124405358D01*
X99081798Y-124445483D01*
X99081800Y-124445483D01*
X99086040Y-124446132D01*
X99225412Y-124448322D01*
X99355571Y-124450367D01*
X99355577Y-124450367D01*
X99359862Y-124450434D01*
X99631735Y-124417534D01*
X99896627Y-124348041D01*
X99900587Y-124346401D01*
X99900592Y-124346399D01*
X100109304Y-124259947D01*
X100149636Y-124243241D01*
X100386082Y-124105073D01*
X100601589Y-123936094D01*
X100643309Y-123893043D01*
X100792169Y-123739431D01*
X100793028Y-123740263D01*
X100847881Y-123704050D01*
X100884864Y-123698500D01*
X101996244Y-123698500D01*
X102064365Y-123718502D01*
X102110858Y-123772158D01*
X102120962Y-123842432D01*
X102099457Y-123896771D01*
X101990069Y-124052993D01*
X101984586Y-124062489D01*
X101892510Y-124259947D01*
X101888764Y-124270239D01*
X101842606Y-124442503D01*
X101842942Y-124456599D01*
X101850884Y-124460000D01*
X104391967Y-124460000D01*
X104405498Y-124456027D01*
X104406727Y-124447478D01*
X104359236Y-124270239D01*
X104355490Y-124259947D01*
X104263414Y-124062489D01*
X104257931Y-124052993D01*
X104132972Y-123874533D01*
X104125916Y-123866125D01*
X103971875Y-123712084D01*
X103959254Y-123701493D01*
X103960108Y-123700475D01*
X103919776Y-123650016D01*
X103912468Y-123579397D01*
X103944500Y-123516037D01*
X104005702Y-123480053D01*
X104022762Y-123477000D01*
X104034316Y-123475745D01*
X104041709Y-123472973D01*
X104041711Y-123472973D01*
X104128284Y-123440518D01*
X104172513Y-123432500D01*
X106277438Y-123432500D01*
X106345559Y-123452502D01*
X106392052Y-123506158D01*
X106402156Y-123576432D01*
X106395421Y-123602727D01*
X106377255Y-123651184D01*
X106370500Y-123713366D01*
X106370500Y-125714634D01*
X106377255Y-125776816D01*
X106428385Y-125913205D01*
X106515739Y-126029761D01*
X106632295Y-126117115D01*
X106768684Y-126168245D01*
X106830866Y-126175000D01*
X108839500Y-126175000D01*
X108907621Y-126195002D01*
X108954114Y-126248658D01*
X108965500Y-126301000D01*
X108965500Y-127127500D01*
X108945498Y-127195621D01*
X108891842Y-127242114D01*
X108839500Y-127253500D01*
X84708500Y-127253500D01*
X84640379Y-127233498D01*
X84593886Y-127179842D01*
X84582500Y-127127500D01*
X84582500Y-124980522D01*
X101841273Y-124980522D01*
X101888764Y-125157761D01*
X101892510Y-125168053D01*
X101984586Y-125365511D01*
X101990069Y-125375007D01*
X102115028Y-125553467D01*
X102122084Y-125561875D01*
X102276125Y-125715916D01*
X102284533Y-125722972D01*
X102462993Y-125847931D01*
X102472489Y-125853414D01*
X102669947Y-125945490D01*
X102680239Y-125949236D01*
X102852503Y-125995394D01*
X102866599Y-125995058D01*
X102870000Y-125987116D01*
X102870000Y-125981967D01*
X103378000Y-125981967D01*
X103381973Y-125995498D01*
X103390522Y-125996727D01*
X103567761Y-125949236D01*
X103578053Y-125945490D01*
X103775511Y-125853414D01*
X103785007Y-125847931D01*
X103963467Y-125722972D01*
X103971875Y-125715916D01*
X104125916Y-125561875D01*
X104132972Y-125553467D01*
X104257931Y-125375007D01*
X104263414Y-125365511D01*
X104355490Y-125168053D01*
X104359236Y-125157761D01*
X104405394Y-124985497D01*
X104405058Y-124971401D01*
X104397116Y-124968000D01*
X103396115Y-124968000D01*
X103380876Y-124972475D01*
X103379671Y-124973865D01*
X103378000Y-124981548D01*
X103378000Y-125981967D01*
X102870000Y-125981967D01*
X102870000Y-124986115D01*
X102865525Y-124970876D01*
X102864135Y-124969671D01*
X102856452Y-124968000D01*
X101856033Y-124968000D01*
X101842502Y-124971973D01*
X101841273Y-124980522D01*
X84582500Y-124980522D01*
X84582500Y-124513662D01*
X84602502Y-124445541D01*
X84656158Y-124399048D01*
X84726432Y-124388944D01*
X84752730Y-124395680D01*
X84866894Y-124438478D01*
X84882149Y-124442105D01*
X84933014Y-124447631D01*
X84939828Y-124448000D01*
X86212385Y-124448000D01*
X86227624Y-124443525D01*
X86228829Y-124442135D01*
X86230500Y-124434452D01*
X86230500Y-120450116D01*
X86226025Y-120434877D01*
X86224635Y-120433672D01*
X86216952Y-120432001D01*
X84939831Y-120432001D01*
X84933010Y-120432371D01*
X84882148Y-120437895D01*
X84866896Y-120441521D01*
X84752730Y-120484320D01*
X84681922Y-120489503D01*
X84619553Y-120455582D01*
X84585424Y-120393327D01*
X84582500Y-120366338D01*
X84582500Y-115675887D01*
X84602502Y-115607766D01*
X84656158Y-115561273D01*
X84726432Y-115551169D01*
X84791012Y-115580663D01*
X84811713Y-115603616D01*
X84829652Y-115629235D01*
X84845802Y-115652300D01*
X85007700Y-115814198D01*
X85012208Y-115817355D01*
X85012211Y-115817357D01*
X85164771Y-115924181D01*
X85209099Y-115979638D01*
X85218500Y-116027394D01*
X85218500Y-117015233D01*
X85217973Y-117026416D01*
X85216298Y-117033909D01*
X85216547Y-117041835D01*
X85216547Y-117041836D01*
X85218438Y-117101986D01*
X85218500Y-117105945D01*
X85218500Y-117133856D01*
X85218997Y-117137790D01*
X85218997Y-117137791D01*
X85219005Y-117137856D01*
X85219938Y-117149693D01*
X85221327Y-117193889D01*
X85226978Y-117213339D01*
X85230987Y-117232700D01*
X85233526Y-117252797D01*
X85236445Y-117260168D01*
X85236445Y-117260170D01*
X85249804Y-117293912D01*
X85253649Y-117305142D01*
X85265982Y-117347593D01*
X85270015Y-117354412D01*
X85270017Y-117354417D01*
X85276293Y-117365028D01*
X85284988Y-117382776D01*
X85292448Y-117401617D01*
X85297110Y-117408033D01*
X85297110Y-117408034D01*
X85318436Y-117437387D01*
X85324952Y-117447307D01*
X85347458Y-117485362D01*
X85361779Y-117499683D01*
X85374619Y-117514716D01*
X85386528Y-117531107D01*
X85392634Y-117536158D01*
X85420605Y-117559298D01*
X85429384Y-117567288D01*
X88079001Y-120216905D01*
X88113027Y-120279217D01*
X88107962Y-120350032D01*
X88065415Y-120406868D01*
X87998895Y-120431679D01*
X87989906Y-120432000D01*
X86756615Y-120432000D01*
X86741376Y-120436475D01*
X86740171Y-120437865D01*
X86738500Y-120445548D01*
X86738500Y-124429884D01*
X86742975Y-124445123D01*
X86744365Y-124446328D01*
X86752048Y-124447999D01*
X88029169Y-124447999D01*
X88035990Y-124447629D01*
X88086852Y-124442105D01*
X88102104Y-124438479D01*
X88222554Y-124393324D01*
X88238149Y-124384786D01*
X88340224Y-124308285D01*
X88352785Y-124295724D01*
X88429286Y-124193649D01*
X88437824Y-124178054D01*
X88482978Y-124057606D01*
X88486605Y-124042351D01*
X88492131Y-123991486D01*
X88492500Y-123984672D01*
X88492500Y-123668105D01*
X88512502Y-123599984D01*
X88566158Y-123553491D01*
X88636432Y-123543387D01*
X88701012Y-123572881D01*
X88722339Y-123596736D01*
X88786774Y-123690490D01*
X88789661Y-123693663D01*
X88789662Y-123693664D01*
X88804498Y-123709969D01*
X88971082Y-123893043D01*
X89181175Y-124068707D01*
X89184816Y-124070991D01*
X89409524Y-124211951D01*
X89409528Y-124211953D01*
X89413164Y-124214234D01*
X89481044Y-124244883D01*
X89658845Y-124325164D01*
X89658849Y-124325166D01*
X89662757Y-124326930D01*
X89666877Y-124328150D01*
X89666876Y-124328150D01*
X89921223Y-124403491D01*
X89921227Y-124403492D01*
X89925336Y-124404709D01*
X89929570Y-124405357D01*
X89929575Y-124405358D01*
X90191798Y-124445483D01*
X90191800Y-124445483D01*
X90196040Y-124446132D01*
X90335412Y-124448322D01*
X90465571Y-124450367D01*
X90465577Y-124450367D01*
X90469862Y-124450434D01*
X90741735Y-124417534D01*
X91006627Y-124348041D01*
X91010587Y-124346401D01*
X91010592Y-124346399D01*
X91219304Y-124259947D01*
X91259636Y-124243241D01*
X91496082Y-124105073D01*
X91649639Y-123984669D01*
X93366501Y-123984669D01*
X93366871Y-123991490D01*
X93372395Y-124042352D01*
X93376021Y-124057604D01*
X93421176Y-124178054D01*
X93429714Y-124193649D01*
X93506215Y-124295724D01*
X93518776Y-124308285D01*
X93620851Y-124384786D01*
X93636446Y-124393324D01*
X93756894Y-124438478D01*
X93772149Y-124442105D01*
X93823014Y-124447631D01*
X93829828Y-124448000D01*
X95102385Y-124448000D01*
X95117624Y-124443525D01*
X95118829Y-124442135D01*
X95120500Y-124434452D01*
X95120500Y-122712115D01*
X95116025Y-122696876D01*
X95114635Y-122695671D01*
X95106952Y-122694000D01*
X93384616Y-122694000D01*
X93369377Y-122698475D01*
X93368172Y-122699865D01*
X93366501Y-122707548D01*
X93366501Y-123984669D01*
X91649639Y-123984669D01*
X91711589Y-123936094D01*
X91753309Y-123893043D01*
X91899186Y-123742509D01*
X91902169Y-123739431D01*
X91904702Y-123735983D01*
X91904706Y-123735978D01*
X92061757Y-123522178D01*
X92064295Y-123518723D01*
X92089135Y-123472973D01*
X92192918Y-123281830D01*
X92192919Y-123281828D01*
X92194968Y-123278054D01*
X92291769Y-123021877D01*
X92352907Y-122754933D01*
X92356729Y-122712115D01*
X92377031Y-122484627D01*
X92377031Y-122484625D01*
X92377251Y-122482161D01*
X92377693Y-122440000D01*
X92376256Y-122418918D01*
X92359359Y-122171055D01*
X92359358Y-122171049D01*
X92359142Y-122167885D01*
X93366500Y-122167885D01*
X93370975Y-122183124D01*
X93372365Y-122184329D01*
X93380048Y-122186000D01*
X95102385Y-122186000D01*
X95117624Y-122181525D01*
X95118829Y-122180135D01*
X95120500Y-122172452D01*
X95120500Y-120450116D01*
X95116025Y-120434877D01*
X95114635Y-120433672D01*
X95106952Y-120432001D01*
X93829831Y-120432001D01*
X93823010Y-120432371D01*
X93772148Y-120437895D01*
X93756896Y-120441521D01*
X93636446Y-120486676D01*
X93620851Y-120495214D01*
X93518776Y-120571715D01*
X93506215Y-120584276D01*
X93429714Y-120686351D01*
X93421176Y-120701946D01*
X93376022Y-120822394D01*
X93372395Y-120837649D01*
X93366869Y-120888514D01*
X93366500Y-120895328D01*
X93366500Y-122167885D01*
X92359142Y-122167885D01*
X92359067Y-122166778D01*
X92303532Y-121898612D01*
X92212117Y-121640465D01*
X92086513Y-121397112D01*
X92073880Y-121379136D01*
X91956361Y-121211924D01*
X91929045Y-121173057D01*
X91806103Y-121040755D01*
X91745546Y-120975588D01*
X91745543Y-120975585D01*
X91742625Y-120972445D01*
X91739310Y-120969731D01*
X91739306Y-120969728D01*
X91608569Y-120862721D01*
X91530705Y-120798990D01*
X91297204Y-120655901D01*
X91293268Y-120654173D01*
X91050373Y-120547549D01*
X91050369Y-120547548D01*
X91046445Y-120545825D01*
X90783066Y-120470800D01*
X90778824Y-120470196D01*
X90778818Y-120470195D01*
X90551866Y-120437895D01*
X90511943Y-120432213D01*
X90368089Y-120431460D01*
X90242377Y-120430802D01*
X90242371Y-120430802D01*
X90238091Y-120430780D01*
X90164134Y-120440517D01*
X90093987Y-120429578D01*
X90058594Y-120404690D01*
X87071967Y-117418062D01*
X88177349Y-117418062D01*
X88186645Y-117430077D01*
X88237850Y-117465931D01*
X88247345Y-117471414D01*
X88444803Y-117563490D01*
X88455095Y-117567236D01*
X88665544Y-117623625D01*
X88676337Y-117625528D01*
X88893381Y-117644517D01*
X88904331Y-117644517D01*
X89121375Y-117625528D01*
X89132168Y-117623625D01*
X89342617Y-117567236D01*
X89352909Y-117563490D01*
X89550367Y-117471414D01*
X89559862Y-117465931D01*
X89611904Y-117429491D01*
X89620280Y-117419012D01*
X89613212Y-117405566D01*
X88911668Y-116704022D01*
X88897724Y-116696408D01*
X88895891Y-116696539D01*
X88889276Y-116700790D01*
X88183779Y-117406287D01*
X88177349Y-117418062D01*
X87071967Y-117418062D01*
X86522405Y-116868500D01*
X86488379Y-116806188D01*
X86485500Y-116779405D01*
X86485500Y-116337475D01*
X87586339Y-116337475D01*
X87605328Y-116554519D01*
X87607231Y-116565312D01*
X87663620Y-116775761D01*
X87667366Y-116786053D01*
X87759442Y-116983511D01*
X87764925Y-116993006D01*
X87801365Y-117045048D01*
X87811844Y-117053424D01*
X87825290Y-117046356D01*
X88526834Y-116344812D01*
X88533212Y-116333132D01*
X89263264Y-116333132D01*
X89263395Y-116334965D01*
X89267646Y-116341580D01*
X89973143Y-117047077D01*
X90014885Y-117069871D01*
X90024885Y-117072047D01*
X90075083Y-117122253D01*
X90090307Y-117175814D01*
X90090356Y-117176717D01*
X90090356Y-117180134D01*
X90097111Y-117242316D01*
X90148241Y-117378705D01*
X90235595Y-117495261D01*
X90352151Y-117582615D01*
X90488540Y-117633745D01*
X90550722Y-117640500D01*
X92246990Y-117640500D01*
X92309172Y-117633745D01*
X92445561Y-117582615D01*
X92562117Y-117495261D01*
X92649471Y-117378705D01*
X92700601Y-117242316D01*
X92707356Y-117180134D01*
X92707356Y-117096522D01*
X93195273Y-117096522D01*
X93242764Y-117273761D01*
X93246510Y-117284053D01*
X93338586Y-117481511D01*
X93344069Y-117491007D01*
X93469028Y-117669467D01*
X93476084Y-117677875D01*
X93630125Y-117831916D01*
X93638533Y-117838972D01*
X93816993Y-117963931D01*
X93826489Y-117969414D01*
X94023947Y-118061490D01*
X94034239Y-118065236D01*
X94206503Y-118111394D01*
X94220599Y-118111058D01*
X94224000Y-118103116D01*
X94224000Y-118097967D01*
X94732000Y-118097967D01*
X94735973Y-118111498D01*
X94744522Y-118112727D01*
X94921761Y-118065236D01*
X94932053Y-118061490D01*
X95129511Y-117969414D01*
X95139007Y-117963931D01*
X95317467Y-117838972D01*
X95325875Y-117831916D01*
X95479916Y-117677875D01*
X95486972Y-117669467D01*
X95611931Y-117491007D01*
X95617414Y-117481511D01*
X95709490Y-117284053D01*
X95713236Y-117273761D01*
X95759394Y-117101497D01*
X95759058Y-117087401D01*
X95751116Y-117084000D01*
X94750115Y-117084000D01*
X94734876Y-117088475D01*
X94733671Y-117089865D01*
X94732000Y-117097548D01*
X94732000Y-118097967D01*
X94224000Y-118097967D01*
X94224000Y-117102115D01*
X94219525Y-117086876D01*
X94218135Y-117085671D01*
X94210452Y-117084000D01*
X93210033Y-117084000D01*
X93196502Y-117087973D01*
X93195273Y-117096522D01*
X92707356Y-117096522D01*
X92707356Y-115483866D01*
X92700601Y-115421684D01*
X92649471Y-115285295D01*
X92562117Y-115168739D01*
X92445561Y-115081385D01*
X92309172Y-115030255D01*
X92246990Y-115023500D01*
X90550722Y-115023500D01*
X90488540Y-115030255D01*
X90352151Y-115081385D01*
X90235595Y-115168739D01*
X90148241Y-115285295D01*
X90097111Y-115421684D01*
X90090356Y-115483866D01*
X90090356Y-115487185D01*
X90066703Y-115554110D01*
X90020700Y-115589804D01*
X90021715Y-115591734D01*
X90010856Y-115597442D01*
X90010611Y-115597632D01*
X90010453Y-115597653D01*
X89972422Y-115617644D01*
X89270878Y-116319188D01*
X89263264Y-116333132D01*
X88533212Y-116333132D01*
X88534448Y-116330868D01*
X88534317Y-116329035D01*
X88530066Y-116322420D01*
X87824569Y-115616923D01*
X87812794Y-115610493D01*
X87800779Y-115619789D01*
X87764925Y-115670994D01*
X87759442Y-115680489D01*
X87667366Y-115877947D01*
X87663620Y-115888239D01*
X87607231Y-116098688D01*
X87605328Y-116109481D01*
X87586339Y-116326525D01*
X87586339Y-116337475D01*
X86485500Y-116337475D01*
X86485500Y-116027394D01*
X86505502Y-115959273D01*
X86539229Y-115924181D01*
X86691789Y-115817357D01*
X86691792Y-115817355D01*
X86696300Y-115814198D01*
X86858198Y-115652300D01*
X86872448Y-115631950D01*
X86945875Y-115527084D01*
X86989523Y-115464749D01*
X86991846Y-115459767D01*
X86991849Y-115459762D01*
X87083961Y-115262225D01*
X87083961Y-115262224D01*
X87086284Y-115257243D01*
X87089568Y-115244988D01*
X88177432Y-115244988D01*
X88184500Y-115258434D01*
X88886044Y-115959978D01*
X88899988Y-115967592D01*
X88901821Y-115967461D01*
X88908436Y-115963210D01*
X89613933Y-115257713D01*
X89620363Y-115245938D01*
X89611067Y-115233923D01*
X89559862Y-115198069D01*
X89550367Y-115192586D01*
X89352909Y-115100510D01*
X89342617Y-115096764D01*
X89132168Y-115040375D01*
X89121375Y-115038472D01*
X88904331Y-115019483D01*
X88893381Y-115019483D01*
X88676337Y-115038472D01*
X88665544Y-115040375D01*
X88455095Y-115096764D01*
X88444803Y-115100510D01*
X88247345Y-115192586D01*
X88237850Y-115198069D01*
X88185808Y-115234509D01*
X88177432Y-115244988D01*
X87089568Y-115244988D01*
X87120436Y-115129789D01*
X87144119Y-115041402D01*
X87144119Y-115041400D01*
X87145543Y-115036087D01*
X87165498Y-114808000D01*
X87145543Y-114579913D01*
X87086284Y-114358757D01*
X87061983Y-114306643D01*
X86991849Y-114156238D01*
X86991846Y-114156233D01*
X86989523Y-114151251D01*
X86858198Y-113963700D01*
X86696300Y-113801802D01*
X86691792Y-113798645D01*
X86691789Y-113798643D01*
X86613611Y-113743902D01*
X86508749Y-113670477D01*
X86503767Y-113668154D01*
X86503762Y-113668151D01*
X86469543Y-113652195D01*
X86416258Y-113605278D01*
X86396797Y-113537001D01*
X86417339Y-113469041D01*
X86469543Y-113423805D01*
X86503762Y-113407849D01*
X86503767Y-113407846D01*
X86508749Y-113405523D01*
X86677019Y-113287699D01*
X86691789Y-113277357D01*
X86691792Y-113277355D01*
X86696300Y-113274198D01*
X86858198Y-113112300D01*
X86922128Y-113020999D01*
X86968181Y-112955229D01*
X87023638Y-112910901D01*
X87071394Y-112901500D01*
X87367186Y-112901500D01*
X87435307Y-112921502D01*
X87481800Y-112975158D01*
X87493186Y-113027500D01*
X87493186Y-113116134D01*
X87499941Y-113178316D01*
X87551071Y-113314705D01*
X87638425Y-113431261D01*
X87754981Y-113518615D01*
X87891370Y-113569745D01*
X87953552Y-113576500D01*
X89649820Y-113576500D01*
X89712002Y-113569745D01*
X89848391Y-113518615D01*
X89964947Y-113431261D01*
X90052301Y-113314705D01*
X90103431Y-113178316D01*
X90104603Y-113167526D01*
X90105489Y-113165394D01*
X90106111Y-113162778D01*
X90106534Y-113162879D01*
X90131841Y-113101965D01*
X90190203Y-113061537D01*
X90261157Y-113059078D01*
X90322176Y-113095371D01*
X90329175Y-113104031D01*
X90332329Y-113107789D01*
X90335488Y-113112300D01*
X90497386Y-113274198D01*
X90501894Y-113277355D01*
X90501897Y-113277357D01*
X90516667Y-113287699D01*
X90684937Y-113405523D01*
X90689919Y-113407846D01*
X90689924Y-113407849D01*
X90850674Y-113482807D01*
X90892443Y-113502284D01*
X90897751Y-113503706D01*
X90897753Y-113503707D01*
X91108284Y-113560119D01*
X91108286Y-113560119D01*
X91113599Y-113561543D01*
X91341686Y-113581498D01*
X91569773Y-113561543D01*
X91575086Y-113560119D01*
X91575088Y-113560119D01*
X91785619Y-113503707D01*
X91785621Y-113503706D01*
X91790929Y-113502284D01*
X91832698Y-113482807D01*
X91993448Y-113407849D01*
X91993453Y-113407846D01*
X91998435Y-113405523D01*
X92166705Y-113287699D01*
X92181475Y-113277357D01*
X92181478Y-113277355D01*
X92185986Y-113274198D01*
X92347884Y-113112300D01*
X92479209Y-112924749D01*
X92481532Y-112919767D01*
X92481535Y-112919762D01*
X92573647Y-112722225D01*
X92573647Y-112722224D01*
X92575970Y-112717243D01*
X92610122Y-112589789D01*
X92633805Y-112501402D01*
X92633806Y-112501399D01*
X92635229Y-112496087D01*
X92655184Y-112268000D01*
X92635229Y-112039913D01*
X92633805Y-112034597D01*
X92632850Y-112029183D01*
X92635003Y-112028803D01*
X92636462Y-111967258D01*
X92667388Y-111916516D01*
X92951411Y-111632494D01*
X93013723Y-111598469D01*
X93084539Y-111603534D01*
X93141374Y-111646081D01*
X93166185Y-111712601D01*
X93166026Y-111732573D01*
X93164981Y-111744515D01*
X93164981Y-111744525D01*
X93164502Y-111750000D01*
X93184457Y-111978087D01*
X93243716Y-112199243D01*
X93246039Y-112204224D01*
X93246039Y-112204225D01*
X93338151Y-112401762D01*
X93338154Y-112401767D01*
X93340477Y-112406749D01*
X93471802Y-112594300D01*
X93633700Y-112756198D01*
X93638208Y-112759355D01*
X93638211Y-112759357D01*
X93714532Y-112812797D01*
X93821251Y-112887523D01*
X93826233Y-112889846D01*
X93826238Y-112889849D01*
X93860457Y-112905805D01*
X93913742Y-112952722D01*
X93933203Y-113020999D01*
X93912661Y-113088959D01*
X93860457Y-113134195D01*
X93826238Y-113150151D01*
X93826233Y-113150154D01*
X93821251Y-113152477D01*
X93716389Y-113225902D01*
X93638211Y-113280643D01*
X93638208Y-113280645D01*
X93633700Y-113283802D01*
X93471802Y-113445700D01*
X93468645Y-113450208D01*
X93468643Y-113450211D01*
X93420746Y-113518615D01*
X93340477Y-113633251D01*
X93338154Y-113638233D01*
X93338151Y-113638238D01*
X93323118Y-113670477D01*
X93243716Y-113840757D01*
X93242294Y-113846065D01*
X93242293Y-113846067D01*
X93195029Y-114022457D01*
X93184457Y-114061913D01*
X93164502Y-114290000D01*
X93184457Y-114518087D01*
X93243716Y-114739243D01*
X93246039Y-114744224D01*
X93246039Y-114744225D01*
X93338151Y-114941762D01*
X93338154Y-114941767D01*
X93340477Y-114946749D01*
X93398949Y-115030255D01*
X93443159Y-115093393D01*
X93471802Y-115134300D01*
X93633700Y-115296198D01*
X93638208Y-115299355D01*
X93638211Y-115299357D01*
X93652711Y-115309510D01*
X93821251Y-115427523D01*
X93826233Y-115429846D01*
X93826238Y-115429849D01*
X93861049Y-115446081D01*
X93914334Y-115492998D01*
X93933795Y-115561275D01*
X93913253Y-115629235D01*
X93861049Y-115674471D01*
X93826489Y-115690586D01*
X93816993Y-115696069D01*
X93638533Y-115821028D01*
X93630125Y-115828084D01*
X93476084Y-115982125D01*
X93469028Y-115990533D01*
X93344069Y-116168993D01*
X93338586Y-116178489D01*
X93246510Y-116375947D01*
X93242764Y-116386239D01*
X93196606Y-116558503D01*
X93196942Y-116572599D01*
X93204884Y-116576000D01*
X95745967Y-116576000D01*
X95759498Y-116572027D01*
X95760727Y-116563478D01*
X95713236Y-116386239D01*
X95709490Y-116375947D01*
X95617414Y-116178489D01*
X95611931Y-116168993D01*
X95486972Y-115990533D01*
X95479916Y-115982125D01*
X95325875Y-115828084D01*
X95317467Y-115821028D01*
X95139007Y-115696069D01*
X95129511Y-115690586D01*
X95094951Y-115674471D01*
X95041666Y-115627554D01*
X95022205Y-115559277D01*
X95042747Y-115491317D01*
X95094951Y-115446081D01*
X95129762Y-115429849D01*
X95129767Y-115429846D01*
X95134749Y-115427523D01*
X95303289Y-115309510D01*
X95317789Y-115299357D01*
X95317792Y-115299355D01*
X95322300Y-115296198D01*
X95484198Y-115134300D01*
X95512842Y-115093393D01*
X95557051Y-115030255D01*
X95615523Y-114946749D01*
X95617846Y-114941767D01*
X95617849Y-114941762D01*
X95709961Y-114744225D01*
X95709961Y-114744224D01*
X95712284Y-114739243D01*
X95771543Y-114518087D01*
X95791498Y-114290000D01*
X95771543Y-114061913D01*
X95760971Y-114022457D01*
X95713707Y-113846067D01*
X95713706Y-113846065D01*
X95712284Y-113840757D01*
X95632882Y-113670477D01*
X95617849Y-113638238D01*
X95617846Y-113638233D01*
X95615523Y-113633251D01*
X95535254Y-113518615D01*
X95487357Y-113450211D01*
X95487355Y-113450208D01*
X95484198Y-113445700D01*
X95322300Y-113283802D01*
X95317792Y-113280645D01*
X95317789Y-113280643D01*
X95239611Y-113225902D01*
X95134749Y-113152477D01*
X95129767Y-113150154D01*
X95129762Y-113150151D01*
X95095543Y-113134195D01*
X95042258Y-113087278D01*
X95022797Y-113019001D01*
X95043339Y-112951041D01*
X95095543Y-112905805D01*
X95129762Y-112889849D01*
X95129767Y-112889846D01*
X95134749Y-112887523D01*
X95241468Y-112812797D01*
X95317789Y-112759357D01*
X95317792Y-112759355D01*
X95322300Y-112756198D01*
X95484198Y-112594300D01*
X95615523Y-112406749D01*
X95617846Y-112401767D01*
X95617849Y-112401762D01*
X95709961Y-112204225D01*
X95709961Y-112204224D01*
X95712284Y-112199243D01*
X95771543Y-111978087D01*
X95791498Y-111750000D01*
X95771543Y-111521913D01*
X95763525Y-111491990D01*
X95713707Y-111306067D01*
X95713706Y-111306065D01*
X95712284Y-111300757D01*
X95704184Y-111283386D01*
X95617849Y-111098238D01*
X95617846Y-111098233D01*
X95615523Y-111093251D01*
X95521869Y-110959500D01*
X95487357Y-110910211D01*
X95487355Y-110910208D01*
X95484198Y-110905700D01*
X95322300Y-110743802D01*
X95317792Y-110740645D01*
X95317789Y-110740643D01*
X95239611Y-110685902D01*
X95134749Y-110612477D01*
X95129767Y-110610154D01*
X95129762Y-110610151D01*
X95095543Y-110594195D01*
X95042258Y-110547278D01*
X95022797Y-110479001D01*
X95043339Y-110411041D01*
X95095543Y-110365805D01*
X95129762Y-110349849D01*
X95129767Y-110349846D01*
X95134749Y-110347523D01*
X95308019Y-110226198D01*
X95317789Y-110219357D01*
X95317792Y-110219355D01*
X95322300Y-110216198D01*
X95484198Y-110054300D01*
X95518443Y-110005394D01*
X95615523Y-109866749D01*
X95616954Y-109867751D01*
X95662621Y-109824191D01*
X95732332Y-109810741D01*
X95798248Y-109837116D01*
G37*
%TD.AperFunction*%
%TA.AperFunction,Conductor*%
G36*
X108907621Y-102890502D02*
G01*
X108954114Y-102944158D01*
X108965500Y-102996500D01*
X108965500Y-103378209D01*
X108945498Y-103446330D01*
X108891842Y-103492823D01*
X108821568Y-103502927D01*
X108763937Y-103479036D01*
X108721705Y-103447385D01*
X108585316Y-103396255D01*
X108523134Y-103389500D01*
X107376866Y-103389500D01*
X107314684Y-103396255D01*
X107298466Y-103402335D01*
X107186704Y-103444232D01*
X107186701Y-103444234D01*
X107178295Y-103447385D01*
X107171106Y-103452773D01*
X107170863Y-103452906D01*
X107101506Y-103468076D01*
X107073092Y-103462752D01*
X107064587Y-103460119D01*
X106888820Y-103405710D01*
X106882695Y-103405066D01*
X106882694Y-103405066D01*
X106693378Y-103385168D01*
X106693377Y-103385168D01*
X106687250Y-103384524D01*
X106603986Y-103392102D01*
X106491543Y-103402335D01*
X106491540Y-103402336D01*
X106485404Y-103402894D01*
X106479498Y-103404632D01*
X106479494Y-103404633D01*
X106386079Y-103432127D01*
X106290971Y-103460119D01*
X106285514Y-103462972D01*
X106285511Y-103462973D01*
X106116819Y-103551162D01*
X106116815Y-103551165D01*
X106111355Y-103554019D01*
X106111103Y-103554221D01*
X106045088Y-103574201D01*
X105984115Y-103559041D01*
X105817658Y-103469038D01*
X105806353Y-103464286D01*
X105681308Y-103425578D01*
X105667205Y-103425372D01*
X105664000Y-103432127D01*
X105664000Y-104201758D01*
X105663215Y-104215803D01*
X105646500Y-104364817D01*
X105646500Y-104924004D01*
X105661277Y-105074713D01*
X105661968Y-105077002D01*
X105664000Y-105097724D01*
X105664000Y-105856986D01*
X105667973Y-105870516D01*
X105684431Y-105872882D01*
X105749012Y-105902375D01*
X105787396Y-105962102D01*
X105792500Y-105997600D01*
X105792500Y-107863914D01*
X105772498Y-107932035D01*
X105718842Y-107978528D01*
X105648568Y-107988632D01*
X105633889Y-107985621D01*
X105418402Y-107927881D01*
X105418400Y-107927881D01*
X105413087Y-107926457D01*
X105185000Y-107906502D01*
X104956913Y-107926457D01*
X104951600Y-107927881D01*
X104951598Y-107927881D01*
X104741067Y-107984293D01*
X104741065Y-107984294D01*
X104735757Y-107985716D01*
X104730776Y-107988039D01*
X104730775Y-107988039D01*
X104533238Y-108080151D01*
X104533233Y-108080154D01*
X104528251Y-108082477D01*
X104433381Y-108148906D01*
X104345211Y-108210643D01*
X104345208Y-108210645D01*
X104340700Y-108213802D01*
X104178802Y-108375700D01*
X104175645Y-108380208D01*
X104175643Y-108380211D01*
X104157641Y-108405921D01*
X104047477Y-108563251D01*
X104045154Y-108568233D01*
X104045151Y-108568238D01*
X103968551Y-108732509D01*
X103950716Y-108770757D01*
X103949294Y-108776065D01*
X103949293Y-108776067D01*
X103892881Y-108986598D01*
X103891457Y-108991913D01*
X103871502Y-109220000D01*
X103891457Y-109448087D01*
X103908460Y-109511541D01*
X103906770Y-109582518D01*
X103875848Y-109633247D01*
X103689500Y-109819595D01*
X103627188Y-109853621D01*
X103600405Y-109856500D01*
X103438082Y-109856500D01*
X103369961Y-109836498D01*
X103323468Y-109782842D01*
X103313364Y-109712568D01*
X103323888Y-109677249D01*
X103329959Y-109664230D01*
X103329961Y-109664225D01*
X103332284Y-109659243D01*
X103335821Y-109646045D01*
X103390119Y-109443402D01*
X103390119Y-109443400D01*
X103391543Y-109438087D01*
X103411498Y-109210000D01*
X103391543Y-108981913D01*
X103364200Y-108879867D01*
X103333707Y-108766067D01*
X103333706Y-108766065D01*
X103332284Y-108760757D01*
X103317677Y-108729431D01*
X103237849Y-108558238D01*
X103237846Y-108558233D01*
X103235523Y-108553251D01*
X103114357Y-108380208D01*
X103107357Y-108370211D01*
X103107355Y-108370208D01*
X103104198Y-108365700D01*
X102942300Y-108203802D01*
X102937792Y-108200645D01*
X102937789Y-108200643D01*
X102769030Y-108082477D01*
X102754749Y-108072477D01*
X102749767Y-108070154D01*
X102749762Y-108070151D01*
X102552225Y-107978039D01*
X102552224Y-107978039D01*
X102547243Y-107975716D01*
X102541935Y-107974294D01*
X102541933Y-107974293D01*
X102331402Y-107917881D01*
X102331400Y-107917881D01*
X102326087Y-107916457D01*
X102098000Y-107896502D01*
X101869913Y-107916457D01*
X101864600Y-107917881D01*
X101864598Y-107917881D01*
X101654067Y-107974293D01*
X101654065Y-107974294D01*
X101648757Y-107975716D01*
X101643776Y-107978039D01*
X101643775Y-107978039D01*
X101446238Y-108070151D01*
X101446233Y-108070154D01*
X101441251Y-108072477D01*
X101426970Y-108082477D01*
X101258211Y-108200643D01*
X101258208Y-108200645D01*
X101253700Y-108203802D01*
X101091802Y-108365700D01*
X101088645Y-108370208D01*
X101088643Y-108370211D01*
X101081643Y-108380208D01*
X100960477Y-108553251D01*
X100958154Y-108558233D01*
X100958151Y-108558238D01*
X100878323Y-108729431D01*
X100863716Y-108760757D01*
X100862294Y-108766065D01*
X100862293Y-108766067D01*
X100831800Y-108879867D01*
X100804457Y-108981913D01*
X100784502Y-109210000D01*
X100804457Y-109438087D01*
X100805881Y-109443400D01*
X100805881Y-109443402D01*
X100860180Y-109646045D01*
X100863716Y-109659243D01*
X100866039Y-109664225D01*
X100866041Y-109664230D01*
X100872112Y-109677249D01*
X100882774Y-109747441D01*
X100853795Y-109812254D01*
X100794375Y-109851110D01*
X100757918Y-109856500D01*
X99966584Y-109856500D01*
X99955401Y-109855973D01*
X99947908Y-109854298D01*
X99939982Y-109854547D01*
X99939981Y-109854547D01*
X99879831Y-109856438D01*
X99875872Y-109856500D01*
X99847961Y-109856500D01*
X99844027Y-109856997D01*
X99844026Y-109856997D01*
X99843961Y-109857005D01*
X99832124Y-109857938D01*
X99799866Y-109858952D01*
X99795847Y-109859078D01*
X99787928Y-109859327D01*
X99768474Y-109864979D01*
X99749117Y-109868987D01*
X99736887Y-109870532D01*
X99736886Y-109870532D01*
X99729020Y-109871526D01*
X99721649Y-109874445D01*
X99721647Y-109874445D01*
X99687905Y-109887804D01*
X99676675Y-109891649D01*
X99641834Y-109901771D01*
X99641833Y-109901771D01*
X99634224Y-109903982D01*
X99627405Y-109908015D01*
X99627400Y-109908017D01*
X99616789Y-109914293D01*
X99599041Y-109922988D01*
X99580200Y-109930448D01*
X99578726Y-109931519D01*
X99512048Y-109946223D01*
X99445457Y-109921601D01*
X99431584Y-109909614D01*
X97307405Y-107785434D01*
X97273379Y-107723122D01*
X97270500Y-107696339D01*
X97270500Y-107570203D01*
X97290502Y-107502082D01*
X97314515Y-107476276D01*
X97314231Y-107475992D01*
X97320580Y-107469643D01*
X97327761Y-107464261D01*
X97415115Y-107347705D01*
X97422758Y-107327317D01*
X97465401Y-107270553D01*
X97531962Y-107245854D01*
X97601311Y-107261062D01*
X97618832Y-107272666D01*
X97736944Y-107365945D01*
X97745531Y-107371650D01*
X97946722Y-107482714D01*
X97956134Y-107486944D01*
X98172768Y-107563659D01*
X98182739Y-107566293D01*
X98280163Y-107583647D01*
X98293460Y-107582187D01*
X98297543Y-107569096D01*
X98806000Y-107569096D01*
X98809918Y-107582440D01*
X98824194Y-107584427D01*
X98886515Y-107574890D01*
X98896543Y-107572501D01*
X99114988Y-107501102D01*
X99124497Y-107497105D01*
X99328344Y-107390989D01*
X99337069Y-107385495D01*
X99520852Y-107247507D01*
X99528559Y-107240664D01*
X99687339Y-107074509D01*
X99693823Y-107066502D01*
X99716237Y-107033644D01*
X99771148Y-106988641D01*
X99841672Y-106980468D01*
X99905420Y-107011722D01*
X99926116Y-107036204D01*
X99930498Y-107042977D01*
X100092186Y-107220670D01*
X100143331Y-107261062D01*
X100276670Y-107366367D01*
X100276675Y-107366370D01*
X100280724Y-107369568D01*
X100285240Y-107372061D01*
X100285243Y-107372063D01*
X100486526Y-107483177D01*
X100486530Y-107483179D01*
X100491050Y-107485674D01*
X100495919Y-107487398D01*
X100495923Y-107487400D01*
X100712640Y-107564144D01*
X100712644Y-107564145D01*
X100717515Y-107565870D01*
X100722608Y-107566777D01*
X100722611Y-107566778D01*
X100948948Y-107607095D01*
X100948954Y-107607096D01*
X100954037Y-107608001D01*
X101041400Y-107609068D01*
X101189093Y-107610873D01*
X101189095Y-107610873D01*
X101194263Y-107610936D01*
X101431744Y-107574596D01*
X101579697Y-107526238D01*
X101655183Y-107501566D01*
X101655189Y-107501563D01*
X101660101Y-107499958D01*
X101664687Y-107497571D01*
X101664691Y-107497569D01*
X101868607Y-107391416D01*
X101873200Y-107389025D01*
X101955387Y-107327317D01*
X102061185Y-107247882D01*
X102061188Y-107247880D01*
X102065320Y-107244777D01*
X102231301Y-107071088D01*
X102366686Y-106872622D01*
X102381243Y-106841263D01*
X102465658Y-106659405D01*
X102465659Y-106659401D01*
X102467837Y-106654710D01*
X102532040Y-106423202D01*
X102535897Y-106387112D01*
X102552644Y-106230407D01*
X102552644Y-106230399D01*
X102553000Y-106227072D01*
X102553000Y-105992598D01*
X102551548Y-105974928D01*
X102541422Y-105851767D01*
X102538322Y-105814063D01*
X102479794Y-105581056D01*
X102411362Y-105423672D01*
X102386057Y-105365474D01*
X102386055Y-105365471D01*
X102383997Y-105360737D01*
X102253502Y-105159023D01*
X102091814Y-104981330D01*
X102015283Y-104920890D01*
X104377000Y-104920890D01*
X104377300Y-104927035D01*
X104391170Y-105068481D01*
X104393553Y-105080519D01*
X104448542Y-105262651D01*
X104453217Y-105273993D01*
X104542535Y-105441977D01*
X104549322Y-105452193D01*
X104669572Y-105599634D01*
X104678216Y-105608338D01*
X104824809Y-105729610D01*
X104834980Y-105736470D01*
X105002342Y-105826962D01*
X105013647Y-105831714D01*
X105138692Y-105870422D01*
X105152795Y-105870628D01*
X105156000Y-105863873D01*
X105156000Y-104920115D01*
X105151525Y-104904876D01*
X105150135Y-104903671D01*
X105142452Y-104902000D01*
X104395115Y-104902000D01*
X104379876Y-104906475D01*
X104378671Y-104907865D01*
X104377000Y-104915548D01*
X104377000Y-104920890D01*
X102015283Y-104920890D01*
X101995006Y-104904876D01*
X101907330Y-104835633D01*
X101907325Y-104835630D01*
X101903276Y-104832432D01*
X101898760Y-104829939D01*
X101898757Y-104829937D01*
X101697474Y-104718823D01*
X101697470Y-104718821D01*
X101692950Y-104716326D01*
X101688081Y-104714602D01*
X101688077Y-104714600D01*
X101471360Y-104637856D01*
X101471356Y-104637855D01*
X101466485Y-104636130D01*
X101461392Y-104635223D01*
X101461389Y-104635222D01*
X101235052Y-104594905D01*
X101235046Y-104594904D01*
X101229963Y-104593999D01*
X101137474Y-104592869D01*
X100994907Y-104591127D01*
X100994905Y-104591127D01*
X100989737Y-104591064D01*
X100752256Y-104627404D01*
X100640003Y-104664094D01*
X100528817Y-104700434D01*
X100528811Y-104700437D01*
X100523899Y-104702042D01*
X100519313Y-104704429D01*
X100519309Y-104704431D01*
X100315393Y-104810584D01*
X100310800Y-104812975D01*
X100306657Y-104816085D01*
X100306658Y-104816085D01*
X100141867Y-104939814D01*
X100118680Y-104957223D01*
X99952699Y-105130912D01*
X99927160Y-105168351D01*
X99872249Y-105213352D01*
X99801725Y-105221523D01*
X99737978Y-105190269D01*
X99717284Y-105165790D01*
X99715915Y-105163674D01*
X99709622Y-105155502D01*
X99554950Y-104985520D01*
X99547417Y-104978494D01*
X99367056Y-104836055D01*
X99358469Y-104830350D01*
X99157278Y-104719286D01*
X99147866Y-104715056D01*
X98931232Y-104638341D01*
X98921261Y-104635707D01*
X98823837Y-104618353D01*
X98810540Y-104619813D01*
X98806000Y-104634370D01*
X98806000Y-107569096D01*
X98297543Y-107569096D01*
X98298000Y-107567630D01*
X98298000Y-104632904D01*
X98294082Y-104619560D01*
X98279806Y-104617573D01*
X98217485Y-104627110D01*
X98207457Y-104629499D01*
X97989012Y-104700898D01*
X97979503Y-104704895D01*
X97775656Y-104811011D01*
X97766939Y-104816500D01*
X97615901Y-104929902D01*
X97549416Y-104954807D01*
X97480020Y-104939814D01*
X97429747Y-104889684D01*
X97422268Y-104873375D01*
X97415115Y-104854295D01*
X97327761Y-104737739D01*
X97211205Y-104650385D01*
X97074816Y-104599255D01*
X97012634Y-104592500D01*
X95011366Y-104592500D01*
X94949184Y-104599255D01*
X94812795Y-104650385D01*
X94696239Y-104737739D01*
X94608885Y-104854295D01*
X94557755Y-104990684D01*
X94551000Y-105052866D01*
X94551000Y-107149134D01*
X94557755Y-107211316D01*
X94608885Y-107347705D01*
X94696239Y-107464261D01*
X94703420Y-107469643D01*
X94709769Y-107475992D01*
X94708764Y-107476997D01*
X94745581Y-107526238D01*
X94753500Y-107570203D01*
X94753500Y-107783100D01*
X94733498Y-107851221D01*
X94679842Y-107897714D01*
X94616519Y-107908621D01*
X94478000Y-107896502D01*
X94249913Y-107916457D01*
X94244600Y-107917881D01*
X94244598Y-107917881D01*
X94034067Y-107974293D01*
X94034065Y-107974294D01*
X94028757Y-107975716D01*
X94023776Y-107978039D01*
X94023775Y-107978039D01*
X93826238Y-108070151D01*
X93826233Y-108070154D01*
X93821251Y-108072477D01*
X93806970Y-108082477D01*
X93638211Y-108200643D01*
X93638208Y-108200645D01*
X93633700Y-108203802D01*
X93471802Y-108365700D01*
X93468645Y-108370208D01*
X93468643Y-108370211D01*
X93461643Y-108380208D01*
X93340477Y-108553251D01*
X93338154Y-108558233D01*
X93338151Y-108558238D01*
X93258323Y-108729431D01*
X93243716Y-108760757D01*
X93242294Y-108766065D01*
X93242293Y-108766067D01*
X93211800Y-108879867D01*
X93184457Y-108981913D01*
X93164502Y-109210000D01*
X93184457Y-109438087D01*
X93185880Y-109443398D01*
X93185882Y-109443409D01*
X93201459Y-109501541D01*
X93199770Y-109572517D01*
X93168848Y-109623248D01*
X91816698Y-110975397D01*
X91754386Y-111009423D01*
X91694992Y-111008009D01*
X91575088Y-110975881D01*
X91575086Y-110975881D01*
X91569773Y-110974457D01*
X91341686Y-110954502D01*
X91113599Y-110974457D01*
X91108286Y-110975881D01*
X91108284Y-110975881D01*
X90897753Y-111032293D01*
X90897751Y-111032294D01*
X90892443Y-111033716D01*
X90887462Y-111036039D01*
X90887461Y-111036039D01*
X90689924Y-111128151D01*
X90689919Y-111128154D01*
X90684937Y-111130477D01*
X90597770Y-111191512D01*
X90501897Y-111258643D01*
X90501894Y-111258645D01*
X90497386Y-111261802D01*
X90335488Y-111423700D01*
X90332329Y-111428211D01*
X90328794Y-111432424D01*
X90327660Y-111431473D01*
X90277615Y-111471471D01*
X90206996Y-111478776D01*
X90143637Y-111446742D01*
X90107656Y-111385538D01*
X90104604Y-111368483D01*
X90103431Y-111357684D01*
X90052301Y-111221295D01*
X89964947Y-111104739D01*
X89848391Y-111017385D01*
X89712002Y-110966255D01*
X89649820Y-110959500D01*
X87953552Y-110959500D01*
X87891370Y-110966255D01*
X87754981Y-111017385D01*
X87638425Y-111104739D01*
X87551071Y-111221295D01*
X87499941Y-111357684D01*
X87493186Y-111419866D01*
X87493186Y-111508500D01*
X87473184Y-111576621D01*
X87419528Y-111623114D01*
X87367186Y-111634500D01*
X87071394Y-111634500D01*
X87003273Y-111614498D01*
X86968181Y-111580771D01*
X86861357Y-111428211D01*
X86861355Y-111428208D01*
X86858198Y-111423700D01*
X86696300Y-111261802D01*
X86691792Y-111258645D01*
X86691789Y-111258643D01*
X86595916Y-111191512D01*
X86508749Y-111130477D01*
X86503767Y-111128154D01*
X86503762Y-111128151D01*
X86306225Y-111036039D01*
X86306224Y-111036039D01*
X86301243Y-111033716D01*
X86295935Y-111032294D01*
X86295933Y-111032293D01*
X86085402Y-110975881D01*
X86085400Y-110975881D01*
X86080087Y-110974457D01*
X85852000Y-110954502D01*
X85623913Y-110974457D01*
X85618600Y-110975881D01*
X85618598Y-110975881D01*
X85408067Y-111032293D01*
X85408065Y-111032294D01*
X85402757Y-111033716D01*
X85397776Y-111036039D01*
X85397775Y-111036039D01*
X85200238Y-111128151D01*
X85200233Y-111128154D01*
X85195251Y-111130477D01*
X85108084Y-111191512D01*
X85012211Y-111258643D01*
X85012208Y-111258645D01*
X85007700Y-111261802D01*
X84845802Y-111423700D01*
X84842645Y-111428208D01*
X84842643Y-111428211D01*
X84811713Y-111472384D01*
X84756256Y-111516712D01*
X84685636Y-111524021D01*
X84622276Y-111491990D01*
X84586291Y-111430789D01*
X84582500Y-111400113D01*
X84582500Y-108273624D01*
X84602502Y-108205503D01*
X84656158Y-108159010D01*
X84726432Y-108148906D01*
X84791012Y-108178400D01*
X84821065Y-108217010D01*
X84902446Y-108378818D01*
X84940660Y-108454799D01*
X84943086Y-108458328D01*
X84943089Y-108458334D01*
X85080767Y-108658655D01*
X85095774Y-108680490D01*
X85280082Y-108883043D01*
X85490175Y-109058707D01*
X85493816Y-109060991D01*
X85718524Y-109201951D01*
X85718528Y-109201953D01*
X85722164Y-109204234D01*
X85790044Y-109234883D01*
X85967845Y-109315164D01*
X85967849Y-109315166D01*
X85971757Y-109316930D01*
X85975877Y-109318150D01*
X85975876Y-109318150D01*
X86230223Y-109393491D01*
X86230227Y-109393492D01*
X86234336Y-109394709D01*
X86238570Y-109395357D01*
X86238575Y-109395358D01*
X86500798Y-109435483D01*
X86500800Y-109435483D01*
X86505040Y-109436132D01*
X86644412Y-109438322D01*
X86774571Y-109440367D01*
X86774577Y-109440367D01*
X86778862Y-109440434D01*
X87050735Y-109407534D01*
X87315627Y-109338041D01*
X87319587Y-109336401D01*
X87319592Y-109336399D01*
X87442132Y-109285641D01*
X87568636Y-109233241D01*
X87805082Y-109095073D01*
X88020589Y-108926094D01*
X88062309Y-108883043D01*
X88148641Y-108793955D01*
X88211169Y-108729431D01*
X88213702Y-108725983D01*
X88213706Y-108725978D01*
X88317954Y-108584061D01*
X88374403Y-108541002D01*
X88445170Y-108535297D01*
X88507787Y-108568757D01*
X88542374Y-108630759D01*
X88545501Y-108658655D01*
X88545501Y-108974669D01*
X88545871Y-108981490D01*
X88551395Y-109032352D01*
X88555021Y-109047604D01*
X88600176Y-109168054D01*
X88608714Y-109183649D01*
X88685215Y-109285724D01*
X88697776Y-109298285D01*
X88799851Y-109374786D01*
X88815446Y-109383324D01*
X88935894Y-109428478D01*
X88951149Y-109432105D01*
X89002014Y-109437631D01*
X89008828Y-109438000D01*
X90281385Y-109438000D01*
X90296624Y-109433525D01*
X90297829Y-109432135D01*
X90299500Y-109424452D01*
X90299500Y-109419884D01*
X90807500Y-109419884D01*
X90811975Y-109435123D01*
X90813365Y-109436328D01*
X90821048Y-109437999D01*
X92098169Y-109437999D01*
X92104990Y-109437629D01*
X92155852Y-109432105D01*
X92171104Y-109428479D01*
X92291554Y-109383324D01*
X92307149Y-109374786D01*
X92409224Y-109298285D01*
X92421785Y-109285724D01*
X92498286Y-109183649D01*
X92506824Y-109168054D01*
X92551978Y-109047606D01*
X92555605Y-109032351D01*
X92561131Y-108981486D01*
X92561500Y-108974672D01*
X92561500Y-107702115D01*
X92557025Y-107686876D01*
X92555635Y-107685671D01*
X92547952Y-107684000D01*
X90825615Y-107684000D01*
X90810376Y-107688475D01*
X90809171Y-107689865D01*
X90807500Y-107697548D01*
X90807500Y-109419884D01*
X90299500Y-109419884D01*
X90299500Y-107157885D01*
X90807500Y-107157885D01*
X90811975Y-107173124D01*
X90813365Y-107174329D01*
X90821048Y-107176000D01*
X92543384Y-107176000D01*
X92558623Y-107171525D01*
X92559828Y-107170135D01*
X92561499Y-107162452D01*
X92561499Y-105885331D01*
X92561129Y-105878510D01*
X92555605Y-105827648D01*
X92551979Y-105812396D01*
X92506824Y-105691946D01*
X92498286Y-105676351D01*
X92421785Y-105574276D01*
X92409224Y-105561715D01*
X92307149Y-105485214D01*
X92291554Y-105476676D01*
X92171106Y-105431522D01*
X92155851Y-105427895D01*
X92104986Y-105422369D01*
X92098172Y-105422000D01*
X90825615Y-105422000D01*
X90810376Y-105426475D01*
X90809171Y-105427865D01*
X90807500Y-105435548D01*
X90807500Y-107157885D01*
X90299500Y-107157885D01*
X90299500Y-105440116D01*
X90295025Y-105424877D01*
X90293635Y-105423672D01*
X90285952Y-105422001D01*
X89008831Y-105422001D01*
X89002010Y-105422371D01*
X88951148Y-105427895D01*
X88935896Y-105431521D01*
X88815446Y-105476676D01*
X88799851Y-105485214D01*
X88697776Y-105561715D01*
X88685215Y-105574276D01*
X88608714Y-105676351D01*
X88600176Y-105691946D01*
X88555022Y-105812394D01*
X88551395Y-105827649D01*
X88545869Y-105878514D01*
X88545500Y-105885328D01*
X88545500Y-106202113D01*
X88525498Y-106270234D01*
X88471842Y-106316727D01*
X88401568Y-106326831D01*
X88336988Y-106297337D01*
X88316413Y-106274563D01*
X88240514Y-106166569D01*
X88240508Y-106166562D01*
X88238045Y-106163057D01*
X88051625Y-105962445D01*
X88048310Y-105959731D01*
X88048306Y-105959728D01*
X87886936Y-105827648D01*
X87839705Y-105788990D01*
X87606204Y-105645901D01*
X87602268Y-105644173D01*
X87359373Y-105537549D01*
X87359369Y-105537548D01*
X87355445Y-105535825D01*
X87092066Y-105460800D01*
X87087824Y-105460196D01*
X87087818Y-105460195D01*
X86860866Y-105427895D01*
X86820943Y-105422213D01*
X86677089Y-105421460D01*
X86551377Y-105420802D01*
X86551371Y-105420802D01*
X86547091Y-105420780D01*
X86542847Y-105421339D01*
X86542843Y-105421339D01*
X86434916Y-105435548D01*
X86275578Y-105456525D01*
X86271438Y-105457658D01*
X86271436Y-105457658D01*
X86201918Y-105476676D01*
X86011428Y-105528788D01*
X86007480Y-105530472D01*
X85763482Y-105634546D01*
X85763478Y-105634548D01*
X85759530Y-105636232D01*
X85739625Y-105648145D01*
X85528225Y-105774664D01*
X85528221Y-105774667D01*
X85524543Y-105776868D01*
X85310818Y-105948094D01*
X85122308Y-106146742D01*
X84962502Y-106369136D01*
X84834357Y-106611161D01*
X84832885Y-106615184D01*
X84832883Y-106615188D01*
X84826826Y-106631740D01*
X84784631Y-106688838D01*
X84718265Y-106714059D01*
X84648799Y-106699397D01*
X84598288Y-106649506D01*
X84582500Y-106588438D01*
X84582500Y-104375885D01*
X104377000Y-104375885D01*
X104381475Y-104391124D01*
X104382865Y-104392329D01*
X104390548Y-104394000D01*
X105137885Y-104394000D01*
X105153124Y-104389525D01*
X105154329Y-104388135D01*
X105156000Y-104380452D01*
X105156000Y-103439014D01*
X105152027Y-103425483D01*
X105144232Y-103424363D01*
X105027068Y-103458846D01*
X105015700Y-103463439D01*
X104847089Y-103551586D01*
X104836827Y-103558302D01*
X104688557Y-103677515D01*
X104679787Y-103686103D01*
X104557501Y-103831838D01*
X104550563Y-103841969D01*
X104458906Y-104008692D01*
X104454076Y-104019962D01*
X104396548Y-104201315D01*
X104393998Y-104213309D01*
X104377393Y-104361350D01*
X104377000Y-104368374D01*
X104377000Y-104375885D01*
X84582500Y-104375885D01*
X84582500Y-102996500D01*
X84602502Y-102928379D01*
X84656158Y-102881886D01*
X84708500Y-102870500D01*
X108839500Y-102870500D01*
X108907621Y-102890502D01*
G37*
%TD.AperFunction*%
%TD*%
M02*
