M48
; DRILL file {KiCad 6.0.4-6f826c9f35~116~ubuntu20.04.1} date Wed 13 Apr 2022 12:39:52 AM PDT
; FORMAT={-:-/ absolute / inch / decimal}
; #@! TF.CreationDate,2022-04-13T00:39:52-07:00
; #@! TF.GenerationSoftware,Kicad,Pcbnew,6.0.4-6f826c9f35~116~ubuntu20.04.1
; #@! TF.FileFunction,MixedPlating,1,2
FMAT,2
INCH
; #@! TA.AperFunction,Plated,PTH,ComponentDrill
T1C0.0295
; #@! TA.AperFunction,Plated,PTH,ComponentDrill
T2C0.0315
; #@! TA.AperFunction,Plated,PTH,ComponentDrill
T3C0.0433
; #@! TA.AperFunction,Plated,PTH,ComponentDrill
T4C0.0689
%
G90
G05
T1
X4.15Y-4.12
X4.2Y-4.12
X4.25Y-4.12
T2
X3.38Y-4.42
X3.38Y-4.52
X3.4961Y-4.42
X3.5Y-4.58
X3.5961Y-4.42
X3.5984Y-4.58
X3.7196Y-4.2996
X3.7196Y-4.3996
X3.7196Y-4.4996
X3.7196Y-4.5996
X4.0196Y-4.2996
X4.0196Y-4.3996
X4.0196Y-4.4996
X4.0196Y-4.5996
X4.06Y-4.81
X4.06Y-4.91
X4.1389Y-4.42
X4.1411Y-4.3
X4.1411Y-4.54
X4.2389Y-4.42
X4.2411Y-4.3
X4.2411Y-4.54
T3
X3.78Y-4.1772
X3.88Y-4.1772
X3.98Y-4.1772
X4.2472Y-4.71
X4.2472Y-4.81
X4.2472Y-4.91
T4
X3.4049Y-4.8205
X3.4123Y-4.2295
X3.5577Y-4.8205
X3.5651Y-4.2295
X3.7549Y-4.8205
X3.9077Y-4.8205
T0
M30
